<svg width="1143" height="282" viewBox="0 0 1143 282" fill="none" xmlns="http://www.w3.org/2000/svg">
<path d="M1086.87 198.4C1082.07 200 1078.87 199.6 1077.27 197.2C1075.67 194.8 1076.47 192 1080.47 187.2C1088.87 176.8 1098.07 161.6 1098.07 145.2C1098.07 126 1086.87 115.2 1068.07 109.6C1063.27 108 1061.67 105.2 1064.47 101.2C1070.47 92.4 1090.07 78 1097.67 78C1120.47 78 1142.07 98.8 1142.07 125.2C1142.07 158.4 1115.67 188 1086.87 198.4ZM1086.07 282C1040.07 282 1013.27 254.4 1013.27 204.8C1013.27 165.2 1030.07 139.6 1046.07 126.8C1052.07 122 1058.07 123.2 1056.87 132.4C1055.67 142 1054.47 159.6 1054.87 174.8C1055.67 214.8 1072.87 237.2 1096.87 240.8C1113.27 243.2 1123.67 240.8 1129.67 241.2C1134.87 241.6 1135.67 245.6 1132.87 249.6C1121.27 266 1095.67 282 1086.07 282Z" fill="#1E1E1E"/>
<path d="M968.2 55.2C973.8 50.4 982.2 42.8 987 36.8C989.8 33.2 989.8 30.8 987.4 27.6C982.6 21.6 973 12.8 967.4 8.00003C961.4 3.20002 959.8 3.20002 953.8 8.00003C948.2 12.8 938.6 21.6 933.8 27.6C931.4 30.8 931.4 33.2 934.2 36.8C939 42.8 947.4 50.4 953 55.2C959 60 962.2 60 968.2 55.2ZM966.2 282C950.6 282 935.8 263.2 935.8 229.2C935.8 206 937.8 168.8 937.8 150.8C937.8 122.4 926.2 116.8 926.2 108.8C926.2 102.4 955 78 963 78C971.8 78 983 96 983.4 118C983.8 146.8 981.4 185.6 981.8 211.6C982.2 236.4 989.8 247.6 997.8 254C999.8 255.6 1000.2 259.2 998.2 261.2C991.8 267.6 971.8 282 966.2 282Z" fill="#1E1E1E"/>
<path d="M788.594 282C772.994 282 758.594 261.2 758.194 229.2C757.794 206 760.194 165.6 759.394 138C758.994 122.4 752.194 111.2 738.194 107.2C733.794 106 732.994 102 736.594 98.4C746.594 88.4 763.394 76.8 770.994 78C789.394 80.8 804.994 95.6 805.794 120.4C806.594 146.8 804.194 182 804.194 211.6C804.194 234.4 812.194 247.6 820.194 254C822.194 255.6 822.594 259.2 820.594 261.2C814.194 267.6 794.194 282 788.594 282ZM877.394 282C861.794 282 845.394 263.2 844.994 229.2C844.594 206 846.994 165.6 846.194 138C845.794 122.4 837.794 111.2 823.794 107.2C819.394 106 818.594 102 822.194 98.4C832.194 88.4 848.994 76.8 856.594 78C874.994 80.8 891.794 95.6 892.594 120.4C893.394 146.8 890.994 182 890.994 211.6C890.994 236.4 900.994 247.6 908.994 254C910.994 255.6 911.394 259.2 909.394 261.2C902.994 267.6 882.994 282 877.394 282ZM699.794 282C684.194 282 669.394 263.2 669.394 229.2C669.394 206 671.394 168.8 671.394 150.8C671.394 122.4 659.794 116.8 659.794 108.8C659.794 102.4 688.594 78 696.594 78C705.394 78 716.594 96 716.994 118C717.394 146.8 714.994 185.6 715.394 211.6C715.794 236.4 723.394 247.6 731.394 254C733.394 255.6 733.794 259.2 731.794 261.2C725.394 267.6 705.394 282 699.794 282Z" fill="#1E1E1E"/>
<path d="M608.503 233.2C602.503 238.4 597.703 236 598.503 227.2C599.303 217.6 600.103 202 598.903 183.6C595.703 130 564.903 115.6 547.303 109.6C542.103 108 541.703 103.6 544.503 100C552.903 88.4 570.503 78 576.503 78C613.303 78 638.103 106 639.703 151.6C641.303 192 624.903 220.4 608.503 233.2ZM558.503 282C521.703 282 496.903 254 495.303 208.4C493.703 168 510.103 139.6 526.503 126.8C532.503 121.6 538.103 124 536.903 132.8C535.703 142.4 535.303 158 536.103 176.4C539.303 230 570.103 244.4 588.103 250.4C592.903 252 593.303 256.4 590.503 260C582.103 271.2 564.503 282 558.503 282Z" fill="#1E1E1E"/>
<path d="M356.006 282C340.406 282 326.806 263.2 324.806 231.6C322.406 190 328.006 108 328.006 72.8C328.006 44.4 316.406 38.8 316.406 30.8C316.406 24.4 345.206 0 353.206 0C362.006 0 373.206 16.8 373.606 43.2C374.406 79.6 368.406 165.6 370.806 208.4C372.406 236.4 379.606 247.6 387.606 254C389.606 255.6 390.006 259.2 388.006 261.2C381.606 267.6 361.606 282 356.006 282ZM448.006 282C432.406 282 416.006 263.2 415.606 229.2C415.206 206 417.606 165.6 416.806 138C416.406 122.4 407.606 111.2 393.606 107.2C389.206 106 388.406 102 392.006 98.4C402.006 88.4 418.806 76.8 426.406 78C444.806 80.8 462.406 95.6 463.206 120.4C464.006 146.8 461.606 182 461.606 211.6C461.606 236.4 471.606 247.6 479.606 254C481.606 255.6 482.006 259.2 480.006 261.2C473.606 267.6 453.606 282 448.006 282Z" fill="#1E1E1E"/>
<path d="M220.916 282C205.316 282 189.716 263.2 187.716 231.6C184.916 190 190.116 108 190.116 72.8C190.116 44.4 178.516 38.8 178.516 30.8C178.516 24.4 207.316 0 215.316 0C224.116 0 235.316 16.8 235.716 43.2C236.116 79.6 231.316 165.6 233.716 208.4C235.316 236.4 244.516 247.6 252.516 254C254.516 255.6 254.916 259.2 252.916 261.2C246.516 267.6 226.516 282 220.916 282Z" fill="#1E1E1E"/>
<path d="M133.044 55.2C138.644 50.4 147.044 42.8 151.844 36.8C154.644 33.2 154.644 30.8 152.244 27.6C147.444 21.6 137.844 12.8 132.244 8.00003C126.244 3.20002 124.644 3.20002 118.644 8.00003C113.044 12.8 103.444 21.6 98.6438 27.6C96.2438 30.8 96.2438 33.2 99.0438 36.8C103.844 42.8 112.244 50.4 117.844 55.2C123.844 60 127.044 60 133.044 55.2ZM131.044 282C115.444 282 100.644 263.2 100.644 229.2C100.644 206 102.644 168.8 102.644 150.8C102.644 122.4 91.0438 116.8 91.0438 108.8C91.0438 102.4 119.844 78 127.844 78C136.644 78 147.844 96 148.244 118C148.644 146.8 146.244 185.6 146.644 211.6C147.044 236.4 154.644 247.6 162.644 254C164.644 255.6 165.044 259.2 163.044 261.2C156.644 267.6 136.644 282 131.044 282Z" fill="#1E1E1E"/>
<path d="M42.4 282C26.8 282 11.2 263.2 9.2 231.6C6.4 190 11.6 108 11.6 72.8C11.6 44.4 0 38.8 0 30.8C0 24.4 28.8 0 36.8 0C45.6 0 56.8 16.8 57.2 43.2C57.6 79.6 52.8 165.6 55.2 208.4C56.8 236.4 66 247.6 74 254C76 255.6 76.4 259.2 74.4 261.2C68 267.6 48 282 42.4 282Z" fill="#1E1E1E"/>
</svg>
