<svg width="671" height="705" viewBox="0 0 671 705" fill="none" xmlns="http://www.w3.org/2000/svg">
<g clip-path="url(#clip0_4_1173)">
<path d="M342.165 704.827C252.382 704.827 179.605 690.201 179.605 672.17C179.605 654.127 252.382 639.513 342.165 639.513C431.948 639.513 504.738 654.127 504.738 672.17C504.738 690.201 431.948 704.827 342.165 704.827Z" fill="#BBBBBB"/>
<path d="M276.031 545.989C259.738 593.574 228.515 624.426 202.747 617.022C167.517 606.904 155.725 557.658 172.031 510.073C188.324 462.5 224.821 431.964 253.546 441.876C282.271 451.8 292.337 498.416 276.031 545.989Z" fill="white"/>
<path d="M276.031 545.989L273.183 545.007C265.965 566.092 255.755 583.796 244.579 596.083C238.991 602.226 233.161 607.013 227.404 610.224C221.635 613.447 215.963 615.095 210.58 615.095C208.202 615.095 205.873 614.768 203.58 614.113C197.798 612.453 192.729 609.678 188.324 605.971C181.71 600.409 176.593 592.702 173.117 583.444C169.641 574.199 167.831 563.438 167.831 551.903C167.831 538.888 170.136 524.905 174.879 511.054C181.855 490.709 192.596 473.575 204.702 461.627C210.737 455.666 217.121 450.988 223.482 447.838C229.854 444.675 236.203 443.039 242.262 443.039C245.798 443.039 249.238 443.596 252.569 444.748C256.986 446.274 260.921 448.746 264.385 452.067C269.574 457.035 273.702 463.966 276.514 472.339C279.326 480.724 280.823 490.54 280.823 501.203C280.823 514.847 278.373 529.873 273.183 545.007L276.031 545.989L278.891 546.983C284.286 531.23 286.857 515.574 286.857 501.203C286.845 486.238 284.081 472.642 278.662 461.761C275.959 456.32 272.592 451.558 268.548 447.68C264.517 443.815 259.81 440.834 254.524 439.016C250.553 437.647 246.425 436.98 242.262 436.98C235.117 436.98 227.863 438.907 220.814 442.397C210.242 447.644 200.079 456.405 191.172 467.783C182.265 479.173 174.613 493.205 169.17 509.091C164.222 523.548 161.796 538.173 161.796 551.903C161.808 568.116 165.163 583.117 171.874 595.125C175.217 601.136 179.417 606.383 184.438 610.612C189.471 614.853 195.324 618.052 201.926 619.942C204.763 620.754 207.659 621.154 210.58 621.154C217.206 621.154 223.868 619.13 230.337 615.519C240.041 610.103 249.334 601.099 257.662 589.406C265.978 577.701 273.291 563.293 278.891 546.983L276.031 545.989Z" fill="#010101"/>
<path d="M276.031 545.989C259.738 593.574 226.922 625.371 202.747 617.022C178.572 608.685 172.2 563.341 188.493 515.756C204.799 468.183 237.603 436.374 261.777 444.723C285.952 453.072 292.337 498.416 276.031 545.989Z" fill="#EBC74D"/>
<path d="M276.031 545.989L273.183 545.008C266.038 565.886 255.634 583.65 244.35 596.059C238.713 602.263 232.86 607.122 227.151 610.394C221.442 613.665 215.89 615.325 210.809 615.325C208.359 615.325 206.006 614.95 203.737 614.162C200.43 613.023 197.497 611.096 194.89 608.418C190.991 604.407 187.865 598.64 185.741 591.478C183.605 584.329 182.483 575.823 182.483 566.444C182.483 551.466 185.343 534.26 191.354 516.75C198.499 495.871 208.902 478.107 220.175 465.699C225.811 459.495 231.665 454.624 237.373 451.364C243.094 448.092 248.634 446.42 253.715 446.42C256.177 446.42 258.531 446.808 260.8 447.595C264.107 448.734 267.028 450.649 269.634 453.339C273.533 457.35 276.671 463.118 278.795 470.267C280.919 477.416 282.042 485.923 282.042 495.314C282.042 510.291 279.181 527.486 273.183 545.008L276.031 545.989L278.892 546.983C285.095 528.867 288.076 511.054 288.076 495.314C288.076 482.154 286.001 470.425 281.849 461.106C279.761 456.453 277.142 452.394 273.955 449.11C270.781 445.826 267.016 443.33 262.767 441.864C259.834 440.846 256.793 440.361 253.715 440.361C247.319 440.373 240.777 442.433 234.392 446.093C224.797 451.594 215.432 460.694 207.019 472.436C198.619 484.178 191.196 498.586 185.645 514.775C179.441 532.89 176.448 550.691 176.448 566.444C176.46 579.591 178.524 591.321 182.688 600.639C184.776 605.304 187.383 609.364 190.569 612.647C193.755 615.931 197.509 618.427 201.769 619.894C204.69 620.899 207.731 621.384 210.809 621.384C217.218 621.384 223.747 619.312 230.144 615.652C239.739 610.151 249.105 601.063 257.517 589.321C265.917 577.579 273.34 563.172 278.892 546.983L276.031 545.989Z" fill="#010101"/>
<path d="M223.916 532.793C223.88 532.272 227.67 531.496 233.415 530.66C236.275 530.236 239.643 529.8 243.251 529.364C245.062 529.158 246.932 528.94 248.839 528.709L249.551 528.637L249.913 528.6L250.022 528.576L250.3 528.491C250.469 528.443 250.601 528.406 250.698 528.358C250.553 528.164 250.42 528.007 250.324 527.885L250.239 527.801L250.215 527.764L250.022 527.437L249.177 525.983C248.067 524.044 246.981 522.142 245.943 520.324C243.867 516.653 241.984 513.272 240.475 510.497C238.943 507.637 237.229 504.426 235.37 500.96C237.711 500.742 240.15 500.512 242.648 500.282C243.553 500.197 244.458 500.112 245.387 500.04C246.027 499.979 246.679 499.93 247.343 499.882C249.974 499.676 252.701 499.482 255.441 499.276C260.92 498.888 266.46 498.549 271.409 498.307C281.317 497.822 288.873 497.737 288.957 498.476C289.03 499.215 281.607 500.67 271.807 502.196C266.907 502.972 261.415 503.759 255.972 504.487C253.244 504.838 250.529 505.202 247.91 505.541C247.258 505.614 246.607 505.698 245.967 505.783L245.013 505.892L244.905 505.916L244.88 505.928L244.856 505.989L244.917 506.025L245.074 506.316C245.315 506.753 245.544 507.189 245.774 507.601C247.306 510.424 249.117 513.866 251.036 517.598C253.534 522.457 256.226 527.679 258.893 532.866C257.083 532.962 255.26 533.06 253.462 533.145C252.581 533.193 251.699 533.241 250.831 533.278C250.263 533.302 249.708 533.314 249.141 533.338C247.222 533.387 245.339 533.435 243.529 533.484C239.884 533.556 236.493 533.593 233.596 533.581C227.803 533.556 223.953 533.326 223.916 532.793Z" fill="#010101"/>
<path d="M247.512 547.625C247.017 547.843 244.977 544.45 242.189 539.228C240.801 536.622 239.22 533.545 237.567 530.236C236.746 528.576 235.889 526.856 235.02 525.123L234.32 523.669C233.946 522.857 233.572 522.057 233.186 521.245C232.413 519.585 231.641 517.913 230.868 516.241C236.638 516.095 242.419 515.938 247.777 515.805C251.893 515.708 255.683 515.647 258.796 515.623H262.164L262.248 515.671L262.296 515.587V515.562L262.212 515.344L261.886 514.447C261.669 513.842 261.44 513.236 261.222 512.618C260.341 510.146 259.436 507.613 258.531 505.081C256.733 499.991 254.983 494.89 253.486 490.334C250.493 481.221 248.489 474.266 249.165 474.012C249.841 473.745 253.076 480.203 257.047 488.94C259.026 493.302 261.198 498.246 263.322 503.202C264.372 505.674 265.423 508.158 266.436 510.57C266.69 511.164 266.943 511.769 267.185 512.363C267.522 513.175 267.848 513.975 268.174 514.775C269.104 517.101 270.009 519.367 270.89 521.56C266.46 521.609 262.381 521.645 258.821 521.681C255.671 521.706 251.869 521.682 247.741 521.609C245.689 521.573 243.553 521.536 241.369 521.5C240.825 521.488 240.282 521.476 239.727 521.463L239.377 521.451L239.329 521.439L239.232 521.415C239.075 521.379 238.894 521.342 238.665 521.306C238.677 521.415 238.701 521.548 238.738 521.718L238.798 521.997L239.281 523.233C239.981 525.05 240.681 526.844 241.357 528.564C242.684 532.03 243.891 535.265 244.881 538.052C246.872 543.626 247.994 547.407 247.512 547.625Z" fill="#010101"/>
<path d="M246.945 475.465C247.138 455.52 258.555 439.452 272.459 439.585C286.363 439.719 297.478 455.993 297.297 475.938C297.104 495.895 285.687 511.951 271.783 511.818C257.879 511.697 246.764 495.411 246.945 475.465Z" fill="white"/>
<path d="M246.945 475.465L249.962 475.502C250.046 466.135 252.786 457.725 256.962 451.836C259.05 448.88 261.488 446.565 264.071 445.002C266.678 443.439 269.417 442.615 272.29 442.615H272.435C275.295 442.651 278.011 443.487 280.582 445.063C284.42 447.413 287.883 451.473 290.345 456.756C292.808 462.027 294.28 468.474 294.28 475.453V475.926V475.914C294.196 485.28 291.456 493.678 287.28 499.579C285.192 502.536 282.766 504.85 280.171 506.414C277.564 507.977 274.824 508.788 271.952 508.788H271.795H271.807C268.947 508.764 266.231 507.928 263.661 506.353C259.823 504.002 256.371 499.931 253.896 494.66C251.434 489.376 249.962 482.93 249.962 475.962V475.478V475.502L246.945 475.465L243.927 475.417V475.962C243.939 486.395 246.824 495.895 251.712 502.972C254.162 506.498 257.119 509.443 260.51 511.527C263.89 513.599 267.728 514.823 271.759 514.847H271.952C275.995 514.859 279.857 513.672 283.273 511.612C288.402 508.51 292.602 503.493 295.559 497.338C298.516 491.182 300.242 483.851 300.315 475.974V475.453C300.303 465.02 297.418 455.52 292.53 448.443C290.08 444.905 287.123 441.973 283.732 439.888C280.352 437.804 276.514 436.593 272.495 436.556H272.519H272.29C268.247 436.556 264.397 437.744 260.969 439.804C255.84 442.906 251.64 447.923 248.683 454.066C245.726 460.234 244.012 467.565 243.927 475.441V475.417L246.945 475.465Z" fill="#010101"/>
<path d="M197.328 546.328C197.219 545.48 202.699 544.135 209.578 544.05C213.018 543.978 216.771 544.244 220.296 544.753C223.808 545.262 227.066 546.062 229.516 546.861C232.003 547.673 235.165 548.946 238.327 550.679C241.489 552.411 244.651 554.617 247.234 556.955C249.829 559.282 251.869 561.693 253.124 563.571C254.367 565.474 254.91 566.795 254.596 567.049C254.258 567.316 253.112 566.516 251.41 565.183C249.696 563.874 247.355 562.093 244.651 560.36C241.96 558.64 238.87 556.992 235.865 555.683C232.86 554.374 229.939 553.368 227.658 552.629C225.377 551.89 222.408 550.993 219.173 550.23C215.938 549.455 212.463 548.788 209.24 548.328C202.783 547.334 197.424 547.128 197.328 546.328Z" fill="#010101"/>
<path d="M159.925 609.182C160.275 608.939 161.446 609.8 163.1 611.326C163.932 612.065 164.838 613.035 165.912 614.017C167.022 614.962 168.229 616.004 169.46 617.106C169.774 617.385 170.076 617.664 170.389 617.943C170.727 618.197 171.077 618.464 171.415 618.718C172.091 619.227 172.779 619.76 173.479 620.281C174.179 620.79 174.819 621.372 175.543 621.832C176.267 622.293 176.979 622.753 177.691 623.214C178.391 623.674 179.079 624.123 179.743 624.559C180.443 624.947 181.131 625.322 181.783 625.686C183.11 626.388 184.257 627.14 185.367 627.6C186.478 628.109 187.697 628.776 189.073 629.394C190.473 629.939 191.945 630.654 193.526 631.211C195.107 631.732 196.724 632.399 198.39 632.811C199.223 633.041 200.043 633.307 200.864 633.513C201.697 633.707 202.506 633.889 203.314 634.083C209.735 635.549 215.178 635.646 215.299 636.434C215.456 637.294 209.82 638.772 202.747 638.324C201.866 638.251 200.961 638.191 200.056 638.118C199.138 638.021 198.221 637.851 197.304 637.718C195.433 637.476 193.623 636.955 191.836 636.531C190.05 636.058 188.385 635.416 186.816 634.883C185.259 634.277 183.883 633.586 182.664 633.017C181.421 632.496 180.141 631.611 178.717 630.763C178.017 630.314 177.269 629.878 176.545 629.369C175.845 628.836 175.133 628.279 174.409 627.709C173.684 627.152 172.948 626.57 172.224 625.989C171.5 625.395 170.86 624.704 170.184 624.062C169.521 623.407 168.857 622.753 168.205 622.111C167.879 621.772 167.553 621.469 167.251 621.129C166.974 620.778 166.684 620.439 166.406 620.1C165.296 618.73 164.258 617.409 163.341 616.21C162.472 614.962 161.808 613.75 161.241 612.756C160.118 610.745 159.588 609.424 159.925 609.182Z" fill="#010101"/>
<path d="M261.379 475.599C261.463 466.038 266.352 458.331 272.29 458.38C278.216 458.44 282.959 466.244 282.862 475.805C282.778 485.378 277.89 493.084 271.964 493.024C266.026 492.975 261.294 485.172 261.379 475.599Z" fill="#010101"/>
<path d="M261.379 475.599L264.396 475.635C264.433 471.37 265.567 467.565 267.172 465.032C267.969 463.772 268.874 462.827 269.731 462.245C270.612 461.664 271.409 461.409 272.217 461.409H272.241V459.822L272.205 461.409H272.241V459.822L272.205 461.409H272.253C273.074 461.421 273.859 461.676 274.716 462.258C275.983 463.118 277.323 464.814 278.288 467.141C279.254 469.467 279.845 472.376 279.845 475.538V475.793V475.781C279.821 480.034 278.674 483.839 277.069 486.371C276.272 487.644 275.379 488.589 274.511 489.17C273.642 489.752 272.845 489.994 272.024 489.994H271.94L271.964 493.024L271.988 489.994C271.179 489.994 270.395 489.74 269.538 489.158C268.259 488.286 266.919 486.601 265.965 484.275C264.988 481.948 264.396 479.028 264.396 475.878V475.635L261.379 475.599L258.362 475.55V475.878C258.374 481.1 259.641 485.874 261.898 489.57C263.033 491.412 264.433 492.987 266.122 494.15C267.8 495.314 269.804 496.041 271.928 496.053H272.024C274.16 496.065 276.188 495.35 277.878 494.187C280.437 492.454 282.367 489.788 283.719 486.638C285.071 483.487 285.843 479.791 285.88 475.841V475.538C285.88 470.316 284.612 465.541 282.343 461.845C281.209 460.004 279.809 458.428 278.119 457.265C276.442 456.102 274.438 455.375 272.314 455.35L272.29 458.38L272.362 455.35H272.217C270.081 455.35 268.066 456.065 266.364 457.216C263.805 458.961 261.874 461.615 260.522 464.766C259.17 467.928 258.398 471.624 258.362 475.575V475.55L261.379 475.599Z" fill="#010101"/>
<path d="M318.689 375.053C333.867 391.131 346.342 412.225 356.199 434.937C363.595 451.962 369.541 469.852 374.247 487.075C381.327 512.933 385.629 537.286 388.124 555.078C389.381 563.99 390.178 571.248 390.678 576.245C390.919 578.743 391.078 580.682 391.19 581.979C391.237 582.62 391.278 583.098 391.297 583.415C391.31 583.569 391.332 583.825 391.332 583.825L391.324 583.834L391.334 583.842L404.877 582.965L391.324 583.834L391.334 583.842L404.877 582.965L391.324 583.834C391.873 592.18 399.041 598.518 407.363 597.981C415.668 597.444 421.967 590.245 421.436 581.898C421.388 581.351 418.994 543.969 407.923 497.06C402.379 473.606 394.676 447.758 383.848 422.834C373.006 397.928 359.076 373.881 340.612 354.251C334.888 348.166 325.331 347.899 319.291 353.64C313.234 359.382 312.965 368.968 318.689 375.053Z" fill="#010101"/>
<path d="M441.545 520.939C494.022 490.126 555.15 496.222 572.322 524.956C542.784 564.773 405.758 641.233 383.481 638.614L380.577 633.755C365.867 604.061 376.364 559.212 441.545 520.939Z" fill="#EBC74D"/>
<path d="M441.545 520.939L443.073 523.559C465.626 510.311 489.842 504.025 511.215 503.522C521.902 503.271 531.874 504.458 540.549 506.909C549.223 509.343 556.602 513.041 562.155 517.731C565.269 520.36 567.81 523.298 569.732 526.521L572.322 524.956L569.904 523.152C569.199 524.107 568.418 525.095 567.564 526.114C563.479 530.991 557.825 536.459 551.052 542.247C527.298 562.522 489.742 586.56 455.887 605.144C438.965 614.439 422.936 622.385 410.042 627.832C403.612 630.555 397.942 632.652 393.397 633.991C391.124 634.651 389.134 635.124 387.495 635.386C385.865 635.655 384.583 635.697 383.822 635.608L383.481 638.613L386.063 637.057L383.159 632.199L380.578 633.755L383.281 632.412C378.508 622.778 376.531 611.483 378.506 599.22C380.482 586.974 386.422 573.706 397.699 560.244C408.029 547.913 422.828 535.447 443.073 523.559L441.545 520.939L440.018 518.335C419.299 530.487 403.945 543.372 393.079 556.342C381.218 570.482 374.723 584.77 372.546 598.255C370.376 611.73 372.555 624.367 377.867 635.107L377.989 635.32L380.883 640.171C381.373 640.98 382.199 641.519 383.124 641.62C384.984 641.829 386.989 641.639 389.326 641.223C393.693 640.399 399.171 638.661 405.638 636.16C416.92 631.789 431.155 625.099 446.629 616.986C469.848 604.808 495.859 589.447 518.741 573.96C530.186 566.212 540.832 558.438 549.982 551C559.132 543.562 566.754 536.48 572.184 530.016C573.101 528.922 573.959 527.842 574.741 526.777C575.47 525.793 575.534 524.455 574.912 523.407C572.618 519.554 569.605 516.107 566.038 513.095C559.664 507.728 551.521 503.7 542.178 501.066C528.157 497.123 511.441 496.304 493.804 499.012C476.167 501.721 457.622 508 440.018 518.335L441.545 520.939Z" fill="#010101"/>
<mask id="mask0_4_1173" style="mask-type:luminance" maskUnits="userSpaceOnUse" x="380" y="512" width="196" height="140">
<path d="M453.743 541.356C401.589 572.743 370.128 616.287 383.474 638.607C396.812 660.937 449.901 653.595 502.055 622.208C554.191 590.823 585.653 547.279 572.324 524.957C558.969 502.629 505.88 509.97 453.743 541.356Z" fill="white"/>
</mask>
<g mask="url(#mask0_4_1173)">
<path d="M453.743 541.356C401.589 572.743 370.128 616.287 383.473 638.607C396.811 660.937 449.9 653.595 502.054 622.208C554.191 590.823 585.661 547.287 572.314 524.949C558.969 502.629 505.879 509.97 453.743 541.356Z" fill="white"/>
<path d="M453.743 541.356L452.182 538.755C429.485 552.42 410.65 568.348 397.524 584.017C388.833 594.391 382.633 604.637 379.543 614.201C378.002 618.978 377.236 623.603 377.409 627.992C377.581 632.364 378.693 636.516 380.875 640.164C382.257 642.47 384.008 644.504 386.06 646.236C391.27 650.621 398.313 653.118 406.543 654.085C418.911 655.538 434.136 653.579 450.807 648.614C467.478 643.649 485.599 635.635 503.598 624.81C526.295 611.146 545.137 595.208 558.264 579.556C566.946 569.174 573.147 558.929 576.237 549.364C577.785 544.578 578.544 539.962 578.371 535.573C578.207 531.192 577.087 527.049 574.904 523.401C573.523 521.095 571.771 519.061 569.72 517.329C564.51 512.945 557.467 510.447 549.244 509.471C536.869 508.027 521.652 509.977 504.973 514.951C488.302 519.916 470.18 527.93 452.182 538.755L453.743 541.356L455.287 543.958C478.741 529.841 502.382 520.662 522.228 516.954C532.143 515.101 541.104 514.612 548.539 515.492C555.998 516.363 561.871 518.6 565.837 521.964C567.407 523.291 568.703 524.796 569.725 526.514C571.338 529.222 572.203 532.295 572.342 535.801C572.557 541.064 571.063 547.291 567.88 554.085C564.713 560.861 559.897 568.191 553.644 575.655C541.054 590.683 522.677 606.254 500.493 619.608C477.039 633.724 453.398 642.903 433.56 646.602C423.637 648.464 414.684 648.944 407.241 648.073C399.789 647.193 393.916 644.956 389.943 641.601C388.38 640.265 387.085 638.76 386.055 637.051C384.442 634.343 383.577 631.27 383.445 627.755C383.223 622.502 384.724 616.265 387.9 609.481C391.075 602.696 395.883 595.374 402.135 587.911C414.725 572.882 433.111 557.302 455.287 543.958L453.743 541.356Z" fill="#010101"/>
<path d="M542.736 510.266C544.169 509.402 555.415 525.595 559.971 533.225C564.624 541 573.469 558.44 572.036 559.304C570.611 560.157 559.446 544.113 554.801 536.345C550.156 528.56 541.311 511.119 542.736 510.266Z" fill="#010101"/>
<path d="M519.611 511.924C521.036 511.071 535.996 533.469 542.24 543.902C548.606 554.549 561.116 578.139 559.691 578.993C558.258 579.856 543.418 557.653 537.062 547.015C530.705 536.376 518.178 512.788 519.611 511.924Z" fill="#010101"/>
<path d="M498.508 516.969C499.934 516.115 517.214 542.39 524.493 554.582C531.929 567.019 546.741 594.452 545.316 595.306C543.892 596.177 526.759 570.122 519.331 557.693C511.904 545.264 497.076 517.832 498.508 516.969Z" fill="#010101"/>
<path d="M477.406 522.014C478.831 521.16 498.425 551.319 506.763 565.26C515.27 579.488 532.383 610.763 530.95 611.627C529.525 612.48 510.083 582.592 501.584 568.372C493.095 554.16 475.973 522.877 477.406 522.014Z" fill="#010101"/>
<path d="M457.645 529.315C459.078 528.452 480.064 560.942 489.032 575.938C498.172 591.237 516.658 624.828 515.233 625.682C513.8 626.545 492.984 594.342 483.854 579.05C474.716 563.768 456.22 530.169 457.645 529.315Z" fill="#010101"/>
<path d="M439.906 539.985C441.331 539.132 462.326 571.629 471.285 586.617C480.425 601.917 498.927 635.506 497.495 636.369C496.069 637.223 475.254 605.02 466.115 589.738C456.976 574.438 438.473 540.849 439.906 539.985Z" fill="#010101"/>
<path d="M424.198 554.049C425.614 553.187 445.217 583.354 453.554 597.296C462.045 611.525 479.167 642.808 477.742 643.662C476.309 644.525 456.874 614.628 448.376 600.408C439.887 586.196 422.765 554.912 424.198 554.049Z" fill="#010101"/>
<path d="M409.823 570.362C411.248 569.508 428.528 595.782 435.816 607.983C443.244 620.412 458.055 647.845 456.639 648.706C455.206 649.57 438.065 623.524 430.638 611.095C423.21 598.666 408.39 571.225 409.823 570.362Z" fill="#010101"/>
<path d="M395.447 586.675C396.88 585.812 411.841 608.228 418.077 618.653C424.442 629.299 436.952 652.89 435.527 653.743C434.094 654.607 419.264 632.412 412.907 621.773C406.541 611.127 394.024 587.546 395.447 586.675Z" fill="#010101"/>
<path d="M383.104 606.381C384.537 605.518 395.784 621.711 400.339 629.34C404.992 637.116 413.828 654.548 412.403 655.402C410.97 656.265 399.814 640.228 395.168 632.443C390.514 624.667 381.679 607.235 383.104 606.381Z" fill="#010101"/>
</g>
<path d="M453.743 541.356L452.182 538.755C429.486 552.42 410.651 568.348 397.525 584.017C388.834 594.391 382.633 604.637 379.544 614.201C378.003 618.978 377.237 623.603 377.41 627.992C377.581 632.364 378.693 636.516 380.876 640.164C382.257 642.47 384.009 644.504 386.06 646.236C391.27 650.621 398.313 653.118 406.544 654.085C418.911 655.538 434.137 653.579 450.808 648.614C467.479 643.649 485.6 635.635 503.598 624.81C526.295 611.146 545.137 595.208 558.265 579.556C566.947 569.174 573.147 558.929 576.237 549.364C577.786 544.578 578.544 539.962 578.371 535.573C578.207 531.193 577.087 527.049 574.905 523.401C573.524 521.095 571.772 519.061 569.721 517.329C564.511 512.945 557.468 510.447 549.245 509.471C536.87 508.027 521.652 509.977 504.973 514.951C488.302 519.916 470.181 527.931 452.182 538.755L453.743 541.356L455.287 543.958C478.741 529.841 502.382 520.662 522.228 516.954C532.143 515.101 541.104 514.612 548.539 515.492C555.999 516.363 561.872 518.6 565.837 521.964C567.408 523.291 568.703 524.796 569.725 526.514C571.338 529.222 572.203 532.295 572.343 535.801C572.557 541.064 571.064 547.291 567.881 554.085C564.713 560.861 559.897 568.191 553.645 575.655C541.055 590.683 522.678 606.254 500.494 619.608C477.04 633.724 453.399 642.903 433.56 646.602C423.638 648.464 414.684 648.944 407.242 648.073C399.79 647.193 393.917 644.956 389.943 641.601C388.38 640.265 387.086 638.76 386.056 637.051C384.443 634.343 383.578 631.27 383.446 627.755C383.224 622.502 384.725 616.266 387.9 609.481C391.076 602.696 395.884 595.374 402.136 587.911C414.726 572.882 433.111 557.302 455.287 543.958L453.743 541.356Z" fill="#010101"/>
<path d="M453.743 541.356L452.182 538.755C429.486 552.42 410.651 568.348 397.525 584.017C388.834 594.391 382.633 604.637 379.544 614.201C378.003 618.978 377.237 623.603 377.41 627.992C377.581 632.364 378.693 636.516 380.876 640.164C382.257 642.47 384.009 644.504 386.06 646.236C391.27 650.621 398.313 653.118 406.544 654.085C418.911 655.538 434.137 653.579 450.808 648.614C467.479 643.649 485.6 635.635 503.598 624.81C526.295 611.146 545.137 595.208 558.265 579.556C566.947 569.174 573.147 558.929 576.237 549.364C577.786 544.578 578.544 539.962 578.371 535.573C578.207 531.193 577.087 527.049 574.905 523.401C573.524 521.095 571.772 519.061 569.721 517.329C564.511 512.945 557.468 510.447 549.245 509.471C536.87 508.027 521.652 509.977 504.973 514.951C488.302 519.916 470.181 527.931 452.182 538.755L453.743 541.356L455.287 543.958C478.741 529.841 502.382 520.662 522.228 516.954C532.143 515.101 541.104 514.612 548.539 515.492C555.999 516.363 561.872 518.6 565.837 521.964C567.408 523.291 568.703 524.796 569.725 526.514C571.338 529.222 572.203 532.295 572.343 535.801C572.557 541.064 571.064 547.291 567.881 554.085C564.713 560.861 559.897 568.191 553.645 575.655C541.055 590.683 522.678 606.254 500.494 619.608C477.04 633.724 453.399 642.903 433.56 646.602C423.638 648.464 414.684 648.944 407.242 648.073C399.79 647.193 393.917 644.956 389.943 641.601C388.38 640.265 387.086 638.76 386.056 637.051C384.443 634.343 383.578 631.27 383.446 627.755C383.224 622.502 384.725 616.266 387.9 609.481C391.076 602.696 395.884 595.374 402.136 587.911C414.726 572.882 433.111 557.302 455.287 543.958L453.743 541.356Z" fill="#010101"/>
<path d="M596.99 547.742C596.581 547.666 596.329 546.44 596.184 544.561C596.094 543.614 596.093 542.505 596.031 541.298C595.884 540.081 595.752 538.751 595.624 537.377C595.582 535.996 595.221 534.583 594.996 533.175C594.867 532.464 594.763 531.759 594.625 531.057C594.438 530.377 594.251 529.696 594.065 529.033C593.887 528.36 593.72 527.712 593.553 527.065C593.378 526.426 593.105 525.848 592.9 525.264C592.451 524.124 592.184 523.012 591.732 522.14C591.303 521.239 590.901 520.156 590.368 519.041C589.77 517.966 589.226 516.732 588.508 515.555C587.767 514.407 587.083 513.133 586.207 512.013C585.781 511.448 585.395 510.837 584.953 510.29C584.512 509.743 584.063 509.206 583.64 508.675C580.151 504.461 576.51 501.671 576.876 500.952C577.236 500.164 581.93 501.754 586.613 505.598C587.187 506.098 587.77 506.607 588.371 507.114C588.956 507.64 589.487 508.23 590.05 508.801C591.199 509.914 592.161 511.233 593.141 512.473C594.097 513.723 594.84 515.078 595.612 516.284C596.294 517.541 596.811 518.769 597.304 519.819C597.413 520.084 597.547 520.357 597.667 520.647C597.76 520.932 597.864 521.241 597.958 521.542C598.15 522.179 598.353 522.841 598.557 523.52C598.746 524.217 599.003 524.909 599.135 525.654C599.26 526.409 599.395 527.171 599.513 527.952C599.64 528.724 599.76 529.522 599.888 530.31L599.975 532.711C600.01 534.307 600.112 535.881 599.889 537.37C599.744 538.862 599.574 540.27 599.402 541.549C599.125 542.802 598.802 543.922 598.513 544.85C597.929 546.715 597.407 547.809 596.99 547.742Z" fill="#010101"/>
<path d="M358.102 367.075C371.282 377.895 382.989 390.607 391.051 402.954C395.082 409.11 398.208 415.157 400.236 420.706C402.287 426.244 403.229 431.248 403.217 435.344C403.217 437.404 402.999 439.234 402.589 440.906C402.227 442.372 401.732 443.705 401.069 445.002C399.91 447.244 398.244 449.413 395.577 451.63C393.574 453.278 390.979 454.95 387.66 456.514C382.687 458.864 376.061 460.961 367.612 462.439C359.176 463.917 348.941 464.778 336.812 464.765C322.268 464.778 305.022 463.542 284.89 460.803C276.635 459.676 269.031 465.481 267.921 473.769C266.798 482.057 272.579 489.691 280.835 490.818C302.053 493.702 320.591 495.059 336.812 495.059C352.514 495.059 366.056 493.799 377.787 491.315C386.573 489.449 394.37 486.904 401.237 483.572C406.391 481.076 411.026 478.143 415.081 474.738C421.176 469.649 425.931 463.445 428.973 456.623C432.05 449.812 433.402 442.518 433.39 435.344C433.378 426.789 431.543 418.368 428.538 410.2C424.012 397.95 416.855 386.123 408.032 374.89C399.21 363.669 388.698 353.079 377.232 343.651C370.787 338.344 361.276 339.289 356.002 345.76C350.716 352.231 351.657 361.779 358.102 367.087V367.075Z" fill="#010101"/>
<path d="M375.857 489.425C375.986 490.911 374.734 492.197 373.073 492.297C371.411 492.398 369.971 491.387 369.854 490.038C369.808 489.698 369.769 487.861 369.579 485.263C369.389 482.665 369.041 479.315 368.591 475.991C367.709 469.342 366.397 462.868 366.78 462.749C367.229 462.59 369.994 468.629 372.158 475.142C373.252 478.393 374.21 481.75 374.843 484.422C375.484 487.084 375.8 489.061 375.857 489.425Z" fill="white"/>
<path d="M603.98 210.711C609.369 218.742 614.769 227.409 619.669 236.19C627.04 249.348 633.287 262.81 636.854 274.437C638.636 280.236 639.754 285.557 640.13 289.983C640.326 292.192 640.348 294.183 640.215 295.888C640.08 297.604 639.817 299.029 639.469 300.188C639.112 301.382 638.677 302.287 638.199 303.04C637.775 303.696 637.307 304.249 636.689 304.795C636.153 305.278 635.484 305.745 634.608 306.226C633.071 307.062 630.812 307.907 627.579 308.47C622.746 309.319 615.776 309.47 606.658 308.287C597.536 307.116 586.305 304.648 572.892 300.582C552.379 294.365 526.797 284.437 495.576 270.006C488.008 266.511 479.044 269.825 475.573 277.41C472.088 285.002 475.408 293.999 482.988 297.497C515.13 312.347 541.861 322.775 564.21 329.561C578.771 333.961 591.458 336.833 602.7 338.293C611.128 339.38 618.742 339.69 625.735 339.167C630.978 338.759 635.88 337.892 640.474 336.452C643.902 335.367 647.16 333.965 650.174 332.198C654.694 329.572 658.655 326.12 661.727 322.094C664.823 318.076 666.999 313.552 668.378 308.95C669.791 304.232 670.4 299.422 670.478 294.616C670.589 286.203 669.129 277.77 666.761 269.213C663.193 256.411 657.524 243.338 650.888 230.503C644.244 217.692 636.617 205.177 629.025 193.848C624.368 186.911 614.985 185.054 608.065 189.708C601.158 194.367 599.323 203.774 603.98 210.711Z" fill="#010101"/>
<path d="M565.615 67.4762C565.708 67.8837 564.841 68.5442 563.431 69.3308C562.736 69.7143 561.888 70.1403 560.953 70.5649C560.071 71.1069 559.106 71.6743 558.091 72.2391C557.595 72.5442 557.036 72.7665 556.562 73.1285C556.079 73.4754 555.596 73.8224 555.098 74.1774L553.623 75.1842C553.152 75.5346 552.736 75.9524 552.296 76.3249C551.428 77.0734 550.558 77.7455 549.908 78.5224C549.56 78.8848 549.227 79.239 548.912 79.5736C548.577 79.8895 548.281 80.2043 548.043 80.5368C547.558 81.1865 546.917 81.8902 546.299 82.6892C545.763 83.5512 545.063 84.4139 544.512 85.4104C543.348 87.3592 542.334 89.6064 541.574 91.7662C540.836 93.933 540.31 95.9866 539.928 97.515C539.546 99.0433 539.251 100.029 538.843 100.082C537.998 100.206 536.811 96.0765 537.394 90.8403C537.693 88.2372 538.429 85.3996 539.541 82.8659C540.065 81.5828 540.81 80.4429 541.404 79.3456C542.098 78.2915 542.836 77.3895 543.454 76.5904C543.755 76.1758 544.137 75.7858 544.557 75.3947C544.977 75.0035 545.416 74.5927 545.884 74.1657C546.76 73.2675 547.896 72.5496 549.032 71.7936C549.609 71.425 550.166 70.9995 550.779 70.6797L552.652 69.7803C553.282 69.4907 553.896 69.2093 554.511 68.9277C555.126 68.6461 555.787 68.5052 556.4 68.3118C557.635 67.9401 558.807 67.6123 559.881 67.3562C560.985 67.2105 561.976 67.1063 562.812 67.0562C564.483 66.956 565.523 67.0687 565.615 67.4762Z" fill="#010101"/>
<path d="M633.635 154.67C690.809 211.013 578.562 265.119 578.847 181.793Z" fill="white"/>
<path d="M581.955 185.783C582.236 191.759 583.153 197.676 585.182 203.121C587.226 208.519 590.45 213.391 594.902 216.688C599.321 220.051 604.902 221.643 610.554 221.651C616.213 221.673 621.924 220.093 627.037 217.472C632.168 214.831 636.747 211.087 640.228 206.543C643.708 201.998 646.005 196.601 646.638 190.99C647.293 185.387 646.27 179.615 643.999 174.299C642.849 171.649 641.407 169.088 639.778 166.647C638.123 164.211 636.256 161.887 634.252 159.687C632.783 158.103 632.475 155.886 633.634 154.67C634.786 153.477 637.082 153.858 638.706 155.602C640.888 158.008 642.929 160.549 644.78 163.259C646.598 165.998 648.222 168.88 649.552 171.938C652.167 178.041 653.435 184.936 652.631 191.709C651.87 198.469 649.104 204.924 645.032 210.225C640.967 215.541 635.698 219.821 629.802 222.862C623.914 225.88 617.333 227.714 610.558 227.707C603.829 227.714 596.843 225.759 591.312 221.553C585.723 217.418 581.87 211.446 579.523 205.247C577.205 198.994 576.232 192.466 575.926 186.027C575.85 183.666 577.187 181.77 578.846 181.793C580.517 181.819 581.889 183.601 581.955 185.783Z" fill="#010101"/>
<path d="M588.297 92.6705C556.394 82.8421 539.787 125.416 557.9 158.585C557.9 158.585 543.301 189.732 571.286 202.823C598.674 215.631 631.224 200.826 647.723 178.636C662.567 158.688 655.184 143.174 652.61 140.434C664.445 109.624 636.105 94.39 625.185 95.5405C625.185 95.5405 611.618 77.4556 588.297 92.6705Z" fill="white"/>
<path d="M588.297 92.6706L589.187 89.7802L589.002 89.724C584.212 88.2712 579.631 87.8929 575.384 88.4631C569.006 89.3225 563.477 92.3612 559.148 96.7879C554.808 101.211 551.625 106.996 549.671 113.522C547.6 120.441 546.914 128.211 547.771 136.182C548.628 144.154 551.051 152.335 555.258 160.034L557.9 158.585L555.171 157.289C555.128 157.39 554.171 159.451 553.189 162.731C552.446 165.211 551.683 168.393 551.318 171.974C550.758 177.342 551.049 183.663 553.738 189.775C555.072 192.822 557.022 195.791 559.699 198.486C562.387 201.185 565.795 203.584 570.024 205.562C572.346 206.659 574.704 207.551 577.087 208.274C590.797 212.432 605.166 210.722 617.993 205.397C630.834 200.063 642.206 191.122 650.144 180.458C654.197 175.012 656.729 169.8 658.165 165.002C660.212 158.164 660.028 152.204 659.019 147.65C658.526 145.376 657.814 143.454 657.075 141.915C656.715 141.136 656.336 140.464 655.955 139.881C655.575 139.298 655.219 138.798 654.797 138.354L652.61 140.434L655.424 141.528C655.899 140.281 656.313 139.067 656.674 137.861C658.542 131.664 658.861 125.958 658.035 120.878C656.798 113.246 652.982 107.108 648.313 102.594C643.648 98.069 638.155 95.088 633.192 93.5825C630.183 92.67 627.374 92.2733 624.86 92.5348L625.184 95.5406L627.594 93.7308C627.498 93.5879 626.301 92.0235 624.054 90.1283C621.803 88.2447 618.48 86.0229 614.119 84.6999C610.636 83.6436 606.499 83.1726 601.859 83.9146C597.224 84.6451 592.12 86.561 586.645 90.1346L588.297 92.6706L589.944 95.2186C594.823 92.0333 599.113 90.4773 602.821 89.8952C606.528 89.3132 609.688 89.6773 612.384 90.4949C615.751 91.5162 618.406 93.2698 620.19 94.7717C621.076 95.521 621.754 96.2071 622.193 96.6815C622.414 96.9128 622.572 97.1001 622.66 97.2279L622.763 97.3474L622.783 97.366L623.698 96.6701L622.771 97.3625L622.783 97.366L623.698 96.6701L622.771 97.3625L623.811 98.7398L625.505 98.5585C626.865 98.4019 629.042 98.6324 631.457 99.3775C634.144 100.18 637.156 101.587 640.009 103.565C644.298 106.522 648.201 110.727 650.438 116.071C652.645 121.43 653.313 127.967 650.889 136.107C650.577 137.15 650.212 138.24 649.783 139.337L649.099 141.114L650.41 142.51C650.481 142.57 650.664 142.802 650.888 143.148C651.274 143.758 651.784 144.709 652.238 145.934C653.61 149.612 654.66 155.632 652.381 163.247C651.159 167.327 648.971 171.897 645.299 176.827C638.064 186.579 627.465 194.919 615.668 199.799C603.864 204.701 590.936 206.153 578.822 202.479C576.716 201.84 574.621 201.04 572.563 200.075C567.679 197.797 564.35 195.005 562.028 192.012C560.294 189.754 559.117 187.362 558.351 184.904C557.181 181.224 556.949 177.361 557.208 173.799C557.47 170.225 558.223 166.951 558.973 164.486C559.411 163.025 559.837 161.853 560.153 161.051C560.309 160.656 560.441 160.342 560.527 160.14L560.616 159.927L560.641 159.884L560.645 159.872L561.287 158.487L560.558 157.128C556.747 150.169 554.551 142.752 553.778 135.551C552.994 128.348 553.635 121.361 555.456 115.276C557.749 107.615 561.888 101.462 567.225 97.8848C569.906 96.0939 572.885 94.9116 576.212 94.4666C579.526 94.0181 583.206 94.2873 587.267 95.5191L587.418 95.5646L588.768 95.9868L589.944 95.2186L588.297 92.6706Z" fill="#010101"/>
<path d="M608.092 166.181C611.617 163.509 614.815 160.371 617.394 156.856C619.951 153.372 621.921 149.407 622.322 145.496C622.763 141.535 621.401 138.076 618.319 135.94C616.81 134.825 614.889 134.078 612.887 133.559C611.903 133.261 610.827 133.15 609.801 132.952C608.717 132.863 607.665 132.709 606.565 132.717C602.221 132.562 597.754 133.153 593.432 134.231C589.109 135.309 584.862 136.852 580.894 138.897C576.929 140.93 573.196 143.412 569.931 146.353C566.681 149.285 563.975 152.762 562.066 156.568C561.612 157.366 561.075 158.024 560.31 158.387C559.569 158.756 558.701 158.872 557.913 158.595C557.129 158.306 556.575 157.671 556.339 156.816C556.114 155.964 556.107 154.849 556.651 153.877C558.952 149.266 562.157 145.221 565.875 141.861C569.594 138.502 573.762 135.747 578.144 133.5C582.542 131.244 587.189 129.544 591.974 128.354C596.759 127.164 601.705 126.49 606.764 126.659C608.013 126.659 609.295 126.846 610.562 126.952C611.834 127.173 613.11 127.333 614.386 127.707C616.916 128.361 619.478 129.328 621.802 131.006C624.105 132.627 626.121 134.995 627.229 137.745C628.351 140.487 628.623 143.413 628.324 146.141C627.719 151.658 625.219 156.385 622.275 160.447C619.277 164.517 615.693 168.019 611.727 171.025C610.902 171.672 605.588 175.179 599.722 176.774C596.817 177.587 593.832 177.907 591.621 177.704C589.408 177.513 588.055 176.888 588.12 176.504C588.175 176.065 589.533 175.871 591.44 175.362C593.346 174.853 595.817 173.972 598.21 172.764C603.024 170.382 607.361 166.768 608.092 166.181Z" fill="#010101"/>
<path d="M605.77 129.027C605.711 125.683 605.759 122.487 605.598 119.315C605.363 114.578 604.645 109.809 602.363 104.995C600.088 100.158 596.305 95.3814 590.282 90.3305C589 89.2589 587.094 89.427 586.029 90.7095C584.963 91.9921 585.136 93.9031 586.418 94.9747C590.119 98.0824 592.739 100.925 594.609 103.616C597.399 107.661 598.596 111.337 599.182 115.409C599.76 119.466 599.65 123.921 599.727 129.103C599.758 130.769 601.125 132.106 602.795 132.094C604.456 132.067 605.787 130.701 605.77 129.027Z" fill="#010101"/>
<path d="M622.377 96.5297C625.769 105.616 626.352 114.888 625.836 122.599C625.335 130.303 623.75 136.438 622.937 139.152C622.781 139.673 622.651 140.064 622.56 140.327C622.522 140.455 622.494 140.548 622.462 140.614L622.441 140.683C621.869 142.256 622.686 143.996 624.257 144.573C625.83 145.139 627.561 144.336 628.121 142.76C628.147 142.717 628.38 142.066 628.727 140.907C629.637 137.869 631.317 131.332 631.864 123.01C632.408 114.7 631.815 104.578 628.035 94.4251C627.456 92.8581 625.711 92.0631 624.149 92.6395C622.584 93.2274 621.798 94.9627 622.377 96.5297Z" fill="#010101"/>
<path d="M652.58 140.381C639.028 157.204 625.254 141.709 625.254 141.709Z" fill="white"/>
<path d="M650.224 138.479C647.254 142.164 644.485 143.915 642.06 144.683C639.623 145.448 637.403 145.28 635.307 144.657C633.063 143.976 631.055 142.723 629.634 141.61C628.927 141.067 628.373 140.558 627.999 140.204C627.826 140.025 627.676 139.892 627.601 139.806L627.506 139.701L627.498 139.686L626.651 140.452L627.495 139.697L627.498 139.686L626.651 140.452L627.495 139.697C626.392 138.453 624.482 138.342 623.244 139.445C621.991 140.555 621.884 142.469 622.999 143.717C623.094 143.821 624.134 144.983 625.956 146.395C627.767 147.803 630.35 149.458 633.572 150.448C636.556 151.353 640.14 151.644 643.888 150.456C647.634 149.279 651.401 146.682 654.927 142.28C655.969 140.991 655.769 139.086 654.47 138.035C653.17 136.984 651.27 137.179 650.224 138.479Z" fill="#010101"/>
<path d="M578.125 133.121C578.183 133.265 578.241 133.409 578.314 133.545C578.67 134.336 577.789 135.549 576.362 136.394C574.92 137.246 573.27 137.063 572.815 136.052C572.729 135.874 572.655 135.7 572.581 135.526C572.481 135.268 571.974 133.925 571.541 131.998C571.093 130.079 570.772 127.527 570.955 125.016C571.09 122.502 571.792 120.071 572.688 118.471C573.084 117.655 573.59 117.062 573.957 116.68C574.335 116.302 574.625 116.137 574.811 116.231C574.997 116.326 575.072 116.665 575.072 117.17C575.081 117.692 574.959 118.35 574.945 119.156C574.81 120.746 574.838 122.803 575.224 124.843C575.892 128.941 577.949 132.739 578.125 133.121Z" fill="#010101"/>
<path fill-rule="evenodd" clip-rule="evenodd" d="M226.078 187.359C226.134 187.301 226.214 187.271 226.295 187.278C226.441 187.292 226.551 187.424 226.538 187.571L226.537 187.575C226.323 190.167 226.499 192.375 226.519 194.341C226.656 210.482 226.72 223.868 227.115 242.725C227.327 253.022 227.483 263.403 227.583 273.869C227.648 280.888 227.675 284.851 227.665 285.756C227.661 286.069 227.683 287.152 227.73 289.006C227.923 296.769 227.643 305.709 228.201 313.959C228.477 317.968 228.324 322.256 228.392 326.121C228.483 331.077 228.609 339.968 228.771 352.793C228.788 353.949 228.841 357.062 228.929 362.129C228.953 363.517 228.897 364.567 228.761 365.281L228.759 365.291C228.722 365.467 228.544 365.58 228.366 365.542L228.36 365.541C227.889 365.429 227.385 365.271 226.847 365.066C211.152 359.083 192.284 352.234 179.905 348.037C178.38 347.518 177.085 346.718 175.687 345.979C175.494 345.878 175.404 345.649 175.477 345.446C175.98 344.063 175.761 342.509 175.645 339.525C175.564 337.412 175.527 335.867 175.533 334.889C175.591 327.705 175.527 321.524 175.341 316.347C175.207 312.605 175.448 309.302 175.275 305.702C174.934 298.715 174.861 291.8 175.057 284.956C175.061 284.806 174.767 254.008 174.747 254.006C174.582 253.99 174.454 253.852 174.45 253.686L173.831 210.94L173.831 210.928C173.838 210.736 173.998 210.584 174.186 210.591L174.202 210.591L199.67 212.784C200.208 212.831 200.741 212.637 201.123 212.255L226.078 187.359Z" fill="white"/>
<path d="M406.661 368.082C406.404 368.089 287.144 371.926 286.963 371.933L232.323 373.405C232.166 373.412 232.009 373.388 231.861 373.335C221.401 369.599 212.74 366.43 205.879 363.826C199.872 361.548 192.972 359.381 186.396 356.921C182.049 355.295 177.788 353.738 173.612 352.25C171.699 351.571 169.715 351.144 169.686 349.21C169.565 340.131 169.432 331.636 169.286 323.724C169.184 318.044 168.799 312.333 168.851 306.856C168.912 300.539 168.844 293.803 168.649 286.649C168.648 286.646 168.649 286.643 168.648 286.64C168.634 286.393 168.185 253.868 168.221 253.532C168.434 251.372 168.114 249.502 168.083 247.417C167.974 239.307 167.924 235.036 167.935 234.606C168.101 227.451 167.41 218.782 167.688 211.405C167.716 210.573 167.289 210.113 166.404 210.024C160.25 209.417 154.126 208.905 148.03 208.487C145.319 208.306 141.908 207.893 138.838 207.214C137.629 206.947 136.357 206.117 135.024 204.724C128.898 198.333 122.345 191.562 115.366 184.412C115.227 184.267 115.118 184.094 115.047 183.902C114.429 182.255 114.769 180.801 116.067 179.54C123.126 172.678 131.425 164.479 140.965 154.944C143.811 152.094 146.751 148.817 149.204 146.45C158.687 137.305 167.471 128.671 175.555 120.547C176.948 119.148 178.73 117.403 180.9 115.313C183.878 112.438 185.601 110.354 188.014 108.311C190.968 105.818 194.1 102.261 197.37 99.0792C206.086 90.5932 212.633 84.1672 217.011 79.8001C223.906 72.9224 229.091 67.8116 232.566 64.4689C236.119 61.0472 238.568 58.6269 239.913 57.2086C243.061 53.8911 246.611 50.8267 249.799 47.5993C259.892 37.3743 268.715 28.5912 276.265 21.2488C277.945 19.6134 279.289 18.2419 280.297 17.1339C282.031 15.2283 283.776 13.9065 285.849 11.8166C287.847 9.80435 289.458 8.12261 290.682 6.77241C292.021 5.29426 294.697 4.91656 296.551 4.81875C307.622 4.24297 312.838 4.10076 320.89 3.29362C334.904 1.89012 348.913 0.836849 362.717 0.142249C363.942 0.0794559 365.103 0.583113 366.2 1.6522C370.388 5.73082 381.35 16.8055 399.087 34.8768C403.548 39.4194 408.162 44.1061 412.927 48.9359C414.478 50.504 415.742 51.8799 416.721 53.0643C416.822 53.1891 416.977 53.2596 417.14 53.2542C419.044 53.2041 421.002 52.9109 423.039 52.9272C430.065 52.9907 438.401 52.6198 443.893 52.6327C459.147 52.6699 471.295 52.7745 480.336 52.9476C482.849 52.9972 484.174 54.327 484.31 56.9362C484.461 59.889 484.508 62.3174 484.449 64.2218C484.297 68.9123 484.578 72.1539 484.477 76.644C484.454 77.5985 484.464 79.3096 484.505 81.7774C484.715 94.4253 484.829 105.183 484.848 114.051C484.854 116.267 484.797 118.63 484.677 121.14C484.656 121.514 484.804 121.88 485.081 122.138C486.051 123.026 487.512 124.458 489.462 126.434C494.452 131.479 499.344 136.411 504.14 141.229C507.916 145.021 511.278 148.444 514.225 151.498C516.509 153.868 518.121 155.486 519.061 156.354C521.299 158.423 522.983 160.5 525.414 162.937C533.408 170.955 537.645 175.207 538.124 175.694C540.824 178.426 542.957 180.685 544.524 182.47C546.337 184.543 545.16 186.365 543.734 188.083C540.426 192.078 536.565 196.529 532.152 201.436C529.435 204.454 527.221 207.502 524.496 210.017C523.973 210.5 523.278 210.756 522.565 210.728C520.137 210.621 517.963 210.689 515.669 210.536C511.655 210.265 507.262 210.174 502.491 210.264C499.887 210.314 497.391 210.082 495.01 209.877C495.003 209.877 494.997 209.876 494.991 209.876C494.739 209.865 494.522 210.066 494.51 210.322C494.51 210.33 494.51 210.337 494.51 210.344L494.936 262.533C494.938 262.761 494.947 270.128 494.954 270.681L495.024 279.438C495.026 279.794 495.267 321.087 495.255 321.216C495.254 321.223 495.254 321.228 495.254 321.234C495.253 328.582 495.289 335.226 495.363 341.163C495.427 346.381 495.692 350.743 495.557 355.36C495.484 357.641 495.799 360.103 495.649 362.576C495.441 366.107 491.826 365.626 489.376 365.706C480.572 366.012 469.304 366.311 455.572 366.602C440.414 366.923 424.006 367.559 406.661 368.082ZM353.947 6.88767C353.552 6.91576 353.089 7.0994 352.602 7.12443C335.706 7.97475 318.91 9.62201 301.972 11.1158C300.123 11.2788 298.791 11.2524 296.936 11.4203C295.32 11.5618 294.561 12.2737 293.236 13.4727C291.797 14.7814 289.632 16.8757 286.741 19.7546C276.578 29.883 268.355 38.1898 260.039 46.2721C255.86 50.341 251.501 54.7978 247.725 58.3376C245.361 60.5532 242.293 63.5813 238.522 67.4221C233.396 72.637 228.314 77.6434 223.276 82.4419C221.631 84.0088 219.539 86.1326 216.999 88.8142C215.999 89.8723 213.883 91.9798 210.651 95.1368C206.365 99.3252 201.386 104.163 195.715 109.651C193.384 111.912 191.471 114.14 189.375 116.126C185.172 120.101 180.959 124.657 177.505 127.855C173.069 131.964 171.106 134.156 167.028 137.932C166.026 138.861 163.461 141.428 159.334 145.635C155.433 149.608 152.13 152.894 149.426 155.496C143.129 161.552 138.786 165.814 136.395 168.283C135.433 169.273 134.269 170.778 133.126 171.864C129.947 174.875 127.475 177.199 125.708 178.837C125.703 178.841 125.699 178.846 125.695 178.85C125.533 179.012 125.535 179.282 125.699 179.446C125.703 179.45 125.707 179.455 125.711 179.458C125.731 179.475 125.771 179.502 125.832 179.54C125.853 179.548 125.876 179.554 125.901 179.557L175.409 183.813C175.896 183.855 176.379 183.693 176.741 183.365C178.589 181.68 180.371 179.482 181.936 177.949C198.477 161.744 208.488 151.884 211.967 148.369C217.868 142.406 222.203 138.1 224.972 135.45C233.351 127.438 241.441 118.877 249.638 110.913C252.581 108.056 256.47 104.18 261.305 99.2835C267.041 93.4745 274.917 85.7269 284.933 76.0418C287.925 73.1414 291.688 69.2067 294.074 66.8706C307.704 53.5714 322.1 39.3391 337.263 24.175C338.462 22.9768 340.899 20.6099 344.574 17.0732C347.848 13.9276 351.022 10.6358 354.096 7.19825C354.122 7.16876 354.137 7.13191 354.141 7.09286C354.15 6.99013 354.074 6.89779 353.971 6.88829C353.963 6.88755 353.955 6.88734 353.947 6.88767ZM363.281 7.89887C361.892 9.01795 360.698 10.0748 359.7 11.0683C356.527 14.2161 352.711 17.9264 348.251 22.1996C346.73 23.661 345.131 25.4442 343.719 26.8347C327.202 43.0962 317.742 52.4229 315.34 54.8152C306.612 63.5159 298.381 71.6492 290.649 79.2154C285.647 84.1144 277.379 92.6813 270.653 99.2548C260.516 109.166 252.086 117.497 245.365 124.247C241.078 128.554 235.789 133.41 231.625 137.847C228.831 140.825 226.571 142.898 223.695 145.836C222.421 147.135 220.406 149.093 217.646 151.712C206.381 162.407 196.503 172.772 184.56 184.181C183.892 184.821 183.108 185.653 182.208 186.677C181.971 186.946 181.941 187.344 182.136 187.647C182.724 188.558 183.282 189.257 183.812 189.745C189.056 194.561 194.114 199.482 198.987 204.505C199.148 204.671 199.417 204.677 199.583 204.517C206.265 198.058 212.997 191.427 219.781 184.626C222.848 181.549 225.256 179.555 227.637 176.916C229.329 175.044 231.246 173.073 233.388 171.002C237.848 166.686 242.335 162.173 246.848 157.462C248.085 156.167 250.526 153.802 254.17 150.367C256.43 148.239 258.844 145.849 261.412 143.199C266.557 137.9 272.155 132.349 278.206 126.548C279.954 124.872 286.47 118.358 297.753 107.006C301.886 102.847 305.413 99.678 308.775 96.1429C310.551 94.2753 313.279 91.536 316.957 87.9241C320.88 84.0689 326.186 78.7756 332.873 72.0438C334.508 70.3972 335.63 69.3013 336.239 68.7573C339.173 66.1268 341.838 62.975 344.507 60.4224C350.953 54.2584 356.223 49.0406 360.317 44.7696C362.766 42.2128 364.553 43.5601 366.491 45.6766C370.286 49.8197 374.579 54.2458 379.369 58.9559C383.176 62.6971 386.125 65.6465 388.217 67.8043C393.411 73.1632 398.356 77.776 403.839 83.5069C406.23 86.0092 408.45 88.2846 410.498 90.3342C437.363 117.184 449.668 129.251 468.908 149.249C470.674 151.085 473.727 154.116 478.066 158.342C484.195 164.311 489.937 170.454 496.838 177.52C498.713 179.441 500.173 180.661 501.677 182.344C502.452 183.214 503.639 184.448 505.241 186.046C513.481 194.245 518.754 199.384 521.788 202.763C521.856 202.838 521.951 202.885 522.052 202.894C522.176 202.906 522.299 202.86 522.384 202.769C524.56 200.457 526.37 198.418 527.815 196.653C530.472 193.403 535.072 189.147 537.935 185.112C538.064 184.928 538.058 184.68 537.921 184.501C536.769 182.97 535.024 181.681 533.675 180.25C526.793 172.933 522.878 168.816 521.928 167.901C516.011 162.206 509.583 155.779 502.644 148.622C498.893 144.753 495.115 140.933 491.312 137.164C485.251 131.153 481.501 127.325 480.062 125.681C478.341 123.72 478.442 120.125 478.47 117.209C478.557 109.584 478.544 102.116 478.43 94.8045C478.337 88.4943 478.295 83.6456 478.305 80.2584C478.332 72.3084 478.33 67.4617 478.298 65.7178C478.251 63.1561 478.185 61.2417 478.099 59.9751C478.074 59.5918 477.754 59.2897 477.371 59.2871L448.088 59.156C447.869 59.153 447.684 59.3247 447.671 59.5436C447.339 64.0178 447.703 67.7741 447.581 72.0736C447.485 75.496 447.504 79.8263 447.637 85.0649C447.73 88.6559 443.445 89.5696 441.308 87.2187C439.057 84.7511 437.75 83.3296 437.386 82.9544C424.078 69.3222 408.92 53.6627 395.574 40.2538C392.798 37.4606 390.387 34.9834 388.341 32.8229C382.717 26.8685 378.788 23.2185 372.369 16.6455C370.48 14.7077 367.561 11.7972 363.613 7.9135C363.522 7.82575 363.379 7.81949 363.281 7.89887ZM488.765 274.31C488.762 274.124 488.597 264.259 488.597 264.259C488.594 264.248 488.592 264.236 488.59 264.221C488.707 255.121 488.69 247.493 488.54 241.335C488.452 237.626 488.714 234.624 488.587 231.461C488.339 225.32 488.511 219.045 488.272 213.509C488.173 211.245 488.111 207.718 488.088 202.929C488.025 189.528 488.019 181.291 488.069 178.217C488.083 177.57 487.833 176.945 487.376 176.486L363.287 51.4491C363.184 51.3446 363.048 51.2796 362.901 51.266C362.712 51.2484 362.524 51.319 362.393 51.4579C359.768 54.218 355.787 58.276 350.451 63.6334C347.657 66.4333 344.53 69.1647 341.789 72.0396C339.964 73.96 338.238 75.7228 336.611 77.327C332.6 81.2819 325.462 88.4106 315.196 98.713C304.476 109.473 296.06 117.803 289.946 123.703C286.837 126.712 284.34 129.437 281.715 131.858C279.69 133.732 277.627 135.759 275.524 137.942C272.965 140.596 269.669 143.889 265.635 147.821C258.222 155.037 250.8 162.879 243.236 170.033C240.222 172.882 237.281 176.057 233.889 179.465C232.734 180.626 232.289 181.378 232.329 183.011C232.42 186.92 232.653 189.866 232.705 194.03C232.897 209.59 233.009 220.286 233.042 226.119C233.084 234.178 233.309 240.112 233.303 246.812C233.292 254.737 233.637 263.077 233.669 271.065C233.704 279.567 233.832 287.206 234.056 293.982C234.282 300.963 234.182 306.737 234.298 313.864C234.6 332.52 234.82 346.646 234.959 356.245C235.015 359.897 234.644 363.677 235.281 366.617C235.314 366.774 235.445 366.891 235.604 366.906C236.004 366.948 236.593 366.566 237.123 366.594C238.723 366.663 240.585 366.641 242.708 366.529C249.255 366.181 260.139 366.359 268.854 365.894C276.124 365.507 282.946 365.306 289.321 365.289C293.094 365.277 296.327 364.929 300.7 364.941C302.575 364.946 305.418 364.877 309.23 364.734C318.282 364.393 327.157 364.12 335.856 363.912C336.348 363.9 337.545 363.865 339.448 363.808C347.714 363.549 356.276 363.271 365.133 362.974C369.23 362.836 372.467 362.969 376.138 362.77C378.87 362.624 381.615 362.519 384.372 362.455C385.292 362.436 390.798 362.254 400.89 361.909C418.56 361.303 431.436 360.888 439.52 360.662C441.433 360.61 444.962 360.527 450.109 360.414C459.953 360.198 472.048 359.823 486.393 359.29C487.148 359.263 487.855 359.366 488.507 359.411C488.981 359.445 489.401 359.088 489.445 358.613C489.447 358.584 489.448 358.555 489.448 358.527L488.765 274.31ZM441.207 59.7427C441.21 59.484 441.011 59.2638 440.754 59.2399C440.739 59.2386 440.725 59.2383 440.71 59.238L424.129 59.168C423.873 59.1685 423.658 59.3665 423.635 59.6217C423.622 59.7662 423.672 59.9095 423.772 60.0143L440.301 77.1066C440.384 77.1914 440.494 77.2443 440.612 77.2552C440.884 77.2804 441.129 77.0765 441.154 76.8037C441.155 76.7908 441.155 76.7779 441.155 76.765L441.207 59.7427ZM514.528 204.091C511.247 200.523 506.735 196.306 498.962 188.653C497.486 187.199 496.225 185.437 494.384 184.273C494.346 184.25 494.303 184.235 494.259 184.231C494.104 184.217 493.964 184.333 493.95 184.488C493.949 184.506 493.949 184.523 493.95 184.541C494.551 190.774 494.238 196.825 494.305 202.955C494.308 203.229 494.529 203.455 494.802 203.465L514.447 204.272C514.503 204.274 514.551 204.231 514.557 204.174C514.559 204.144 514.549 204.113 514.528 204.091ZM226.051 187.263L201.117 212.148C200.735 212.529 200.203 212.723 199.665 212.676L174.217 210.484C174.211 210.483 174.206 210.483 174.201 210.483C174.013 210.476 173.853 210.629 173.846 210.82C173.846 210.825 173.846 210.828 173.846 210.833L174.465 253.56C174.469 253.726 174.597 253.864 174.762 253.88C174.782 253.882 175.076 284.667 175.072 284.817C174.877 291.657 174.95 298.57 175.291 305.554C175.464 309.153 175.223 312.454 175.356 316.194C175.542 321.369 175.606 327.547 175.549 334.728C175.543 335.706 175.58 337.251 175.661 339.362C175.777 342.346 175.996 343.898 175.494 345.281C175.42 345.484 175.51 345.713 175.704 345.813C177.1 346.553 178.394 347.352 179.917 347.871C192.287 352.067 211.141 358.913 226.824 364.894C227.361 365.099 227.865 365.257 228.335 365.369C228.337 365.369 228.339 365.37 228.341 365.37C228.519 365.408 228.697 365.294 228.734 365.119C228.734 365.115 228.735 365.112 228.735 365.109C228.872 364.395 228.928 363.345 228.904 361.958C228.815 356.893 228.763 353.782 228.746 352.626C228.584 339.806 228.458 330.92 228.366 325.965C228.298 322.102 228.451 317.816 228.175 313.809C227.617 305.562 227.897 296.626 227.704 288.866C227.657 287.013 227.636 285.93 227.639 285.618C227.65 284.712 227.622 280.751 227.557 273.735C227.457 263.274 227.301 252.897 227.089 242.605C226.693 223.756 226.629 210.375 226.493 194.242C226.472 192.276 226.296 190.069 226.51 187.478C226.511 187.477 226.511 187.475 226.511 187.474C226.524 187.328 226.415 187.195 226.268 187.182C226.187 187.174 226.108 187.204 226.051 187.263ZM126.544 186.037C126.54 186.036 126.535 186.036 126.53 186.035C126.326 186.016 126.142 186.17 126.123 186.375C126.113 186.487 126.153 186.598 126.233 186.677C130.73 191.144 134.426 194.912 137.321 197.983C138.622 199.36 140.515 201.376 142.418 201.568C146.107 201.946 161.764 203.317 189.39 205.681C189.429 205.685 189.889 205.734 190.77 205.831C190.774 205.831 190.778 205.831 190.782 205.832C190.964 205.849 191.127 205.713 191.143 205.531C191.153 205.425 191.112 205.321 191.032 205.251C189.142 203.515 187.764 202.212 186.9 201.345C183.326 197.749 180.582 195.45 176.617 191.478C175.871 190.733 175.167 190.34 174.508 190.301C168.07 189.937 161.418 189.407 154.552 188.709C145.511 187.79 136.501 187.235 126.544 186.037Z" fill="#010101"/>
<path d="M354.053 6.88666C354.061 6.88633 354.069 6.88655 354.077 6.88729C354.18 6.89679 354.256 6.98913 354.247 7.09185C354.244 7.13091 354.228 7.16776 354.203 7.19724C351.128 10.6349 347.954 13.9267 344.68 17.0723C341.005 20.6091 338.568 22.976 337.369 24.1742C322.206 39.3385 307.81 53.5709 294.18 66.8702C291.794 69.2063 288.03 73.1411 285.039 76.0415C275.023 85.7267 267.147 93.4744 261.41 99.2835C256.575 104.18 252.686 108.056 249.744 110.913C241.546 118.877 233.456 127.439 225.077 135.45C222.308 138.1 217.973 142.406 212.072 148.369C208.593 151.884 198.582 161.745 182.041 177.95C180.475 179.483 178.694 181.681 176.846 183.366C176.483 183.693 176.001 183.856 175.514 183.814L126.005 179.558C125.98 179.555 125.957 179.549 125.937 179.54C125.875 179.502 125.835 179.475 125.815 179.459C125.811 179.455 125.807 179.451 125.803 179.447C125.639 179.282 125.637 179.013 125.799 178.851C125.803 178.847 125.807 178.842 125.812 178.838C127.579 177.2 130.051 174.876 133.23 171.865C134.373 170.779 135.537 169.273 136.499 168.283C138.89 165.815 143.234 161.553 149.53 155.497C152.235 152.895 155.537 149.608 159.438 145.636C163.565 141.429 166.13 138.861 167.133 137.933C171.21 134.157 173.174 131.965 177.61 127.855C181.064 124.658 185.277 120.101 189.479 116.126C191.575 114.14 193.489 111.912 195.819 109.651C201.49 104.163 206.469 99.3252 210.756 95.1367C213.988 91.9797 216.104 89.8722 217.104 88.8141C219.643 86.1324 221.736 84.0086 223.381 82.4417C228.419 77.6432 233.501 72.6367 238.627 67.4217C242.398 63.5809 245.466 60.5527 247.83 58.3371C251.606 54.7973 255.966 50.3405 260.145 46.2715C268.46 38.1891 276.683 29.8822 286.847 19.7538C289.738 16.8748 291.903 14.7804 293.342 13.4717C294.667 12.2728 295.425 11.5608 297.042 11.4193C298.897 11.2515 300.229 11.2779 302.078 11.1149C319.016 9.62103 335.812 7.97375 352.708 7.12342C353.195 7.0984 353.658 6.91475 354.053 6.88666Z" fill="#EB9C4D"/>
<path d="M363.313 7.8595C363.411 7.78014 363.554 7.7864 363.645 7.87412C367.592 11.7567 370.51 14.6663 372.399 16.6036C378.817 23.1747 382.745 26.8236 388.369 32.7763C390.414 34.9362 392.824 37.4127 395.601 40.2051C408.943 53.6101 424.099 69.2651 437.405 82.8933C437.769 83.2685 439.076 84.6895 441.326 87.1565C443.463 89.5066 447.748 88.5932 447.655 85.0032C447.521 79.7661 447.502 75.4371 447.598 72.0156C447.72 67.7175 447.357 63.9622 447.688 59.4893C447.701 59.2705 447.887 59.0988 448.105 59.1019L477.383 59.2329C477.766 59.2355 478.086 59.5375 478.111 59.9207C478.197 61.1869 478.263 63.1008 478.31 65.6617C478.342 67.4051 478.344 72.2504 478.317 80.1981C478.307 83.5843 478.349 88.4316 478.442 94.74C478.556 102.05 478.569 109.516 478.482 117.138C478.454 120.053 478.353 123.647 480.074 125.608C481.513 127.251 485.262 131.078 491.321 137.087C495.125 140.856 498.901 144.674 502.652 148.542C509.59 155.697 516.017 162.122 521.933 167.816C522.882 168.731 526.797 172.846 533.677 180.161C535.027 181.591 536.771 182.88 537.922 184.411C538.06 184.589 538.066 184.837 537.937 185.022C535.074 189.055 530.475 193.31 527.819 196.559C526.374 198.324 524.564 200.362 522.389 202.674C522.303 202.764 522.181 202.81 522.057 202.799C521.955 202.789 521.861 202.742 521.793 202.667C518.759 199.29 513.487 194.152 505.248 185.955C503.647 184.358 502.46 183.124 501.685 182.254C500.181 180.572 498.721 179.352 496.846 177.431C489.947 170.368 484.206 164.226 478.079 158.259C473.74 154.034 470.687 151.004 468.921 149.169C449.685 129.176 437.382 117.113 410.521 90.271C408.474 88.222 406.255 85.9472 403.864 83.4457C398.382 77.7164 393.438 73.105 388.244 67.7477C386.153 65.5905 383.204 62.6418 379.398 58.9018C374.609 54.193 370.316 49.7682 366.522 45.6264C364.585 43.5104 362.797 42.1635 360.349 44.7196C356.256 48.9894 350.987 54.2056 344.542 60.3679C341.873 62.9197 339.209 66.0706 336.275 68.7003C335.666 69.2442 334.544 70.3397 332.91 71.9859C326.223 78.7158 320.919 84.0075 316.997 87.8616C313.319 91.4725 310.592 94.211 308.815 96.078C305.455 99.6121 301.929 102.78 297.796 106.938C286.515 118.287 280 124.799 278.252 126.474C272.202 132.274 266.605 137.823 261.461 143.121C258.893 145.77 256.479 148.159 254.22 150.286C250.577 153.72 248.136 156.085 246.9 157.38C242.387 162.089 237.901 166.601 233.442 170.916C231.3 172.986 229.383 174.957 227.692 176.828C225.311 179.466 222.903 181.459 219.837 184.535C213.054 191.335 206.323 197.964 199.643 204.421C199.476 204.58 199.208 204.575 199.047 204.409C194.174 199.387 189.117 194.468 183.874 189.653C183.345 189.165 182.786 188.466 182.198 187.556C182.004 187.253 182.033 186.855 182.27 186.586C183.17 185.562 183.954 184.73 184.622 184.091C196.563 172.685 206.44 162.323 217.702 151.631C220.461 149.013 222.477 147.056 223.75 145.757C226.626 142.82 228.885 140.748 231.679 137.77C235.842 133.335 241.13 128.48 245.416 124.174C252.137 117.426 260.565 109.097 270.7 99.189C277.425 92.6174 285.691 84.053 290.693 79.1555C298.424 71.5915 306.653 63.4604 315.38 54.7623C317.781 52.3706 327.239 43.0467 343.754 26.7898C345.166 25.3998 346.765 23.617 348.285 22.1561C352.744 17.8841 356.559 14.1749 359.733 11.028C360.73 10.0348 361.924 8.97826 363.313 7.8595Z" fill="#EB9C4D"/>
<path d="M441.237 59.601L441.185 76.6239C441.185 76.6368 441.185 76.6497 441.183 76.6625C441.159 76.9354 440.914 77.1393 440.642 77.1141C440.524 77.1032 440.414 77.0503 440.331 76.9655L423.802 59.8726C423.701 59.7678 423.651 59.6245 423.664 59.48C423.687 59.2248 423.903 59.0268 424.159 59.0263L440.74 59.0963C440.755 59.0966 440.769 59.0969 440.784 59.0982C441.041 59.1221 441.24 59.3423 441.237 59.601Z" fill="#936231"/>
<path d="M514.441 203.98C514.462 204.002 514.473 204.033 514.47 204.063C514.465 204.12 514.416 204.163 514.36 204.161L494.715 203.354C494.442 203.344 494.221 203.118 494.218 202.844C494.151 196.714 494.465 190.663 493.864 184.43C493.862 184.413 493.862 184.395 493.864 184.378C493.878 184.222 494.017 184.106 494.172 184.12C494.217 184.124 494.259 184.139 494.297 184.163C496.139 185.326 497.399 187.088 498.876 188.542C506.648 196.195 511.161 200.412 514.441 203.98Z" fill="#936231"/>
<path d="M126.634 186.167C136.588 187.363 145.594 187.917 154.631 188.835C161.495 189.532 168.144 190.062 174.579 190.424C175.238 190.464 175.942 190.856 176.688 191.6C180.651 195.566 183.394 197.862 186.967 201.452C187.83 202.318 189.207 203.619 191.097 205.352C191.176 205.423 191.218 205.527 191.208 205.632C191.191 205.814 191.028 205.949 190.847 205.933C190.843 205.932 190.839 205.932 190.834 205.931C189.954 205.835 189.494 205.786 189.455 205.782C161.84 203.422 146.19 202.053 142.502 201.675C140.6 201.483 138.707 199.471 137.407 198.095C134.513 195.029 130.818 191.266 126.323 186.806C126.244 186.727 126.204 186.616 126.214 186.505C126.232 186.3 126.416 186.146 126.621 186.165C126.625 186.166 126.63 186.166 126.634 186.167Z" fill="#936231"/>
<path fill-rule="evenodd" clip-rule="evenodd" d="M488.751 274.311L489.435 358.541C489.435 358.57 489.434 358.599 489.431 358.627C489.388 359.102 488.967 359.46 488.493 359.425C487.841 359.381 487.134 359.277 486.379 359.304C472.031 359.837 459.934 360.212 450.089 360.429C444.941 360.541 441.411 360.624 439.498 360.677C431.413 360.902 418.534 361.318 400.862 361.924C390.768 362.268 385.261 362.451 384.341 362.469C381.584 362.534 378.838 362.639 376.106 362.785C372.434 362.984 369.196 362.851 365.099 362.989C356.241 363.286 347.677 363.565 339.41 363.823C337.507 363.88 336.309 363.915 335.817 363.927C327.117 364.135 318.24 364.409 309.187 364.749C305.374 364.892 302.531 364.962 300.655 364.957C296.281 364.945 293.048 365.293 289.275 365.304C282.898 365.321 276.075 365.523 268.804 365.91C260.087 366.375 249.202 366.197 242.654 366.544C240.53 366.657 238.669 366.678 237.068 366.609C236.537 366.582 235.948 366.964 235.549 366.922C235.39 366.907 235.258 366.79 235.225 366.633C234.588 363.692 234.959 359.912 234.904 356.259C234.765 346.659 234.544 332.53 234.242 313.871C234.126 306.743 234.226 300.968 234 293.986C233.777 287.21 233.648 279.569 233.614 271.066C233.581 263.077 233.237 254.735 233.247 246.809C233.253 240.108 233.029 234.173 232.987 226.113C232.954 220.278 232.841 209.581 232.649 194.019C232.597 189.853 232.364 186.907 232.273 182.997C232.233 181.364 232.678 180.612 233.833 179.451C237.226 176.043 240.168 172.867 243.182 170.017C250.747 162.862 258.17 155.019 265.585 147.802C269.619 143.87 272.916 140.576 275.475 137.921C277.578 135.738 279.642 133.711 281.667 131.837C284.293 129.415 286.79 126.689 289.899 123.681C296.014 117.78 304.432 109.448 315.154 98.6864C325.421 88.3824 332.561 81.2526 336.572 77.297C338.2 75.6926 339.926 73.9295 341.751 72.0089C344.493 69.1334 347.62 66.4017 350.415 63.6012C355.752 58.2431 359.733 54.1844 362.359 51.4239C362.49 51.2849 362.677 51.2143 362.867 51.232C363.013 51.2455 363.15 51.3105 363.253 51.4151L487.363 176.471C487.819 176.931 488.07 177.556 488.055 178.203C488.006 181.278 488.012 189.516 488.074 202.918C488.098 207.708 488.159 211.236 488.258 213.501C488.497 219.038 488.325 225.313 488.574 231.456C488.701 234.619 488.438 237.621 488.526 241.331C488.677 247.49 488.693 255.119 488.576 264.22L488.584 264.259C488.584 264.259 488.749 274.125 488.751 274.311Z" fill="white"/>
<mask id="mask1_4_1173" style="mask-type:luminance" maskUnits="userSpaceOnUse" x="291" y="156" width="54" height="76">
<path d="M344.565 191.254C346.505 211.851 336.19 229.677 321.542 231.063C306.885 232.448 293.442 216.879 291.503 196.273C289.573 175.677 299.889 157.861 314.537 156.475C329.184 155.09 342.635 170.658 344.565 191.254Z" fill="white"/>
</mask>
<g mask="url(#mask1_4_1173)">
<path d="M344.565 191.254C346.495 211.851 336.189 229.677 321.542 231.063C306.884 232.448 293.442 216.879 291.502 196.282C289.573 175.676 299.879 157.861 314.536 156.475C329.184 155.09 342.635 170.658 344.565 191.254Z" fill="white"/>
<path d="M344.691 189.965C343.253 174.678 334.018 163.043 324.051 163.992C315.193 164.825 308.757 175.317 308.438 188.367L316.108 192.097C317.634 192.843 317.837 194.945 316.476 195.962L309.982 200.806C313.204 212.257 320.973 220.143 329.252 219.359C339.21 218.419 346.128 205.262 344.691 189.965Z" fill="#010101"/>
<path d="M314.971 183.058C314.902 183.397 314.855 183.737 314.816 184.066C314.671 185.403 315.636 186.595 316.959 186.74C318.28 186.876 319.466 185.916 319.612 184.589C319.631 184.395 319.66 184.192 319.708 183.979C319.958 182.661 319.101 181.392 317.787 181.14C316.486 180.888 315.222 181.751 314.971 183.068V183.058Z" fill="white"/>
<path d="M323.211 170.086C322.092 170.842 321.185 171.588 320.394 172.44C319.603 173.303 318.966 174.223 318.289 175.298C317.585 176.432 317.924 177.933 319.053 178.64C320.181 179.357 321.667 179.009 322.372 177.875C322.989 176.897 323.443 176.267 323.935 175.734C324.418 175.201 324.987 174.727 325.913 174.097C327.023 173.341 327.303 171.84 326.56 170.726C325.817 169.621 324.311 169.33 323.211 170.086Z" fill="white"/>
</g>
<path d="M344.565 191.254L342.162 191.487C342.317 193.076 342.384 194.655 342.384 196.205C342.394 204.992 340.04 212.945 336.209 218.729C334.298 221.626 332.021 223.971 329.512 225.656C326.994 227.342 324.253 228.369 321.31 228.65C320.78 228.698 320.249 228.727 319.717 228.727C316.679 228.727 313.696 227.904 310.851 226.344C306.595 224.019 302.668 220.008 299.667 214.777C296.657 209.545 294.572 203.122 293.905 196.05C293.762 194.452 293.683 192.882 293.683 191.332C293.683 182.545 296.039 174.591 299.87 168.808C301.78 165.911 304.047 163.557 306.566 161.881C309.075 160.195 311.816 159.169 314.759 158.888C315.299 158.829 315.82 158.81 316.35 158.81C319.4 158.81 322.382 159.633 325.218 161.183C329.483 163.508 333.401 167.529 336.412 172.76C339.412 177.982 341.506 184.415 342.162 191.487L344.565 191.254L346.968 191.032C345.993 180.714 342.278 171.559 336.855 164.884C334.144 161.552 330.998 158.829 327.534 156.931C324.07 155.032 320.268 153.966 316.35 153.966C315.675 153.966 314.99 153.995 314.305 154.063C310.523 154.421 306.991 155.758 303.884 157.851C299.213 160.99 295.47 165.775 292.884 171.54C290.297 177.313 288.859 184.095 288.859 191.332C288.859 193.027 288.947 194.761 289.11 196.505C290.075 206.823 293.8 215.968 299.212 222.643C301.925 225.985 305.071 228.698 308.544 230.597C312.008 232.495 315.801 233.571 319.717 233.571C320.394 233.571 321.079 233.533 321.764 233.475C325.546 233.117 329.078 231.769 332.195 229.687C336.865 226.538 340.599 221.762 343.185 215.988C345.771 210.214 347.209 203.442 347.209 196.205C347.209 194.5 347.132 192.775 346.968 191.032L344.565 191.254Z" fill="#010101"/>
<path d="M292.96 151.389L292.141 150.788L292.95 151.398L292.96 151.389L292.141 150.788L292.95 151.398C292.969 151.379 294.813 148.919 298.257 146.526C301.703 144.123 306.672 141.788 313.118 141.788C317.546 141.788 322.738 142.883 328.731 145.974C329.908 146.584 331.365 146.119 331.973 144.927C332.581 143.745 332.118 142.283 330.931 141.672C324.35 138.262 318.358 136.944 313.118 136.944C305.35 136.944 299.329 139.821 295.306 142.679C291.281 145.537 289.188 148.376 289.081 148.511C288.29 149.587 288.512 151.108 289.582 151.902C290.654 152.697 292.169 152.464 292.96 151.389Z" fill="#010101"/>
<path d="M296.164 236.244C303.382 229.937 320.963 218.951 344.7 233.658Z" fill="white"/>
<path d="M297.747 238.066C299.909 236.177 303.063 233.843 307.059 231.992C311.043 230.142 315.848 228.766 321.378 228.766C327.737 228.776 335.099 230.558 343.436 235.712C344.565 236.419 346.051 236.071 346.756 234.928C347.45 233.785 347.103 232.292 345.965 231.595C336.981 226.024 328.654 223.922 321.378 223.922C315.048 223.922 309.529 225.501 305.031 227.594C300.516 229.687 297.004 232.292 294.582 234.414C293.579 235.286 293.472 236.816 294.341 237.824C295.219 238.841 296.744 238.947 297.747 238.066Z" fill="#010101"/>
<mask id="mask2_4_1173" style="mask-type:luminance" maskUnits="userSpaceOnUse" x="368" y="153" width="52" height="71">
<path d="M419.173 186.12C421.007 205.582 411.261 222.43 397.414 223.738C383.567 225.045 370.859 210.329 369.036 190.867C367.202 171.404 376.948 154.556 390.795 153.249C404.642 151.941 417.35 166.657 419.173 186.12Z" fill="white"/>
</mask>
<g mask="url(#mask2_4_1173)">
<path d="M419.173 186.12C421.007 205.582 411.261 222.43 397.414 223.738C383.567 225.045 370.859 210.329 369.036 190.867C367.202 171.404 376.948 154.556 390.795 153.249C404.642 151.941 417.35 166.657 419.173 186.12Z" fill="white"/>
<mask id="mask3_4_1173" style="mask-type:luminance" maskUnits="userSpaceOnUse" x="368" y="153" width="52" height="71">
<path d="M419.173 186.12C421.007 205.582 411.261 222.43 397.414 223.738C383.567 225.045 370.859 210.329 369.036 190.867C367.202 171.404 376.948 154.556 390.795 153.249C404.642 151.941 417.35 166.657 419.173 186.12Z" fill="white"/>
</mask>
<g mask="url(#mask3_4_1173)">
<path d="M419.299 184.899C417.939 170.455 409.206 159.459 399.788 160.35C391.422 161.145 385.334 171.055 385.034 183.388L392.281 186.924C393.728 187.622 393.912 189.608 392.628 190.567L386.491 195.14C389.541 205.971 396.884 213.42 404.7 212.684C414.117 211.793 420.65 199.353 419.299 184.899Z" fill="#010101"/>
<path d="M391.075 178.35C391.017 178.67 390.969 178.99 390.93 179.319C390.785 180.646 391.75 181.838 393.072 181.983C394.394 182.129 395.581 181.16 395.726 179.832C395.745 179.658 395.774 179.464 395.813 179.261C396.063 177.953 395.205 176.684 393.892 176.432C392.59 176.18 391.326 177.043 391.075 178.35Z" fill="white"/>
<path d="M398.92 165.999C397.858 166.725 396.99 167.433 396.237 168.256C395.475 169.07 394.877 169.951 394.23 170.968C393.526 172.102 393.863 173.604 394.992 174.311C396.121 175.028 397.607 174.679 398.321 173.555C398.9 172.625 399.325 172.034 399.778 171.54C400.232 171.055 400.753 170.61 401.621 170.01C402.731 169.264 403.02 167.752 402.268 166.648C401.525 165.543 400.02 165.253 398.92 165.999Z" fill="white"/>
</g>
</g>
<path d="M419.174 186.12L416.771 186.352C416.916 187.854 416.983 189.336 416.983 190.799C416.993 199.072 414.773 206.57 411.165 212.005C409.37 214.728 407.228 216.937 404.873 218.516C402.519 220.105 399.952 221.064 397.192 221.325C396.691 221.374 396.189 221.393 395.697 221.393C392.841 221.393 390.052 220.628 387.379 219.165C383.375 216.985 379.689 213.207 376.862 208.276C374.025 203.354 372.056 197.299 371.439 190.634C371.294 189.132 371.226 187.65 371.226 186.187C371.226 177.914 373.446 170.415 377.045 164.98C378.84 162.258 380.982 160.05 383.336 158.47C385.691 156.882 388.257 155.923 391.027 155.661C391.528 155.613 392.021 155.593 392.513 155.583C395.369 155.593 398.157 156.359 400.83 157.821C404.835 160.001 408.521 163.779 411.348 168.701C414.185 173.632 416.153 179.687 416.771 186.352L419.174 186.12L421.576 185.897C420.66 176.122 417.138 167.451 411.995 161.115C409.418 157.947 406.437 155.37 403.146 153.568C399.856 151.757 396.247 150.739 392.513 150.749C391.866 150.739 391.22 150.778 390.573 150.837C386.974 151.176 383.606 152.454 380.654 154.44C376.215 157.424 372.664 161.968 370.213 167.432C367.762 172.905 366.402 179.338 366.402 186.187C366.402 187.805 366.479 189.442 366.633 191.089C367.55 200.864 371.072 209.535 376.215 215.871C378.791 219.029 381.773 221.616 385.073 223.418C388.354 225.22 391.972 226.246 395.697 226.237C396.343 226.237 396.99 226.208 397.636 226.15C401.245 225.811 404.603 224.532 407.556 222.546C411.994 219.562 415.545 215.018 417.996 209.554C420.447 204.071 421.808 197.648 421.808 190.799C421.808 189.181 421.731 187.544 421.576 185.897L419.174 186.12Z" fill="#010101"/>
<path d="M370.512 148.522L369.653 147.882L370.512 148.531V148.522L369.653 147.882L370.512 148.531C370.512 148.521 372.249 146.206 375.481 143.959C378.724 141.701 383.394 139.502 389.454 139.502C393.622 139.502 398.505 140.539 404.149 143.445C405.327 144.055 406.784 143.591 407.392 142.399C408.009 141.217 407.536 139.754 406.349 139.144C400.116 135.917 394.433 134.658 389.454 134.658C382.081 134.658 376.369 137.4 372.548 140.103C368.727 142.815 366.739 145.508 366.633 145.644C365.842 146.719 366.064 148.24 367.135 149.035C368.206 149.829 369.721 149.597 370.512 148.522Z" fill="#010101"/>
<path d="M373.436 228.63C380.258 222.682 396.864 212.296 419.299 226.189Z" fill="white"/>
<path d="M375.018 230.461C377.054 228.68 380.027 226.479 383.78 224.736C387.534 222.992 392.059 221.703 397.26 221.703C403.243 221.713 410.181 223.389 418.035 228.252C419.174 228.95 420.66 228.601 421.354 227.458C422.059 226.325 421.702 224.833 420.573 224.125C412.052 218.846 404.169 216.86 397.26 216.86C391.258 216.86 386.028 218.361 381.754 220.337C377.479 222.323 374.15 224.794 371.853 226.799C370.85 227.681 370.744 229.212 371.612 230.219C372.49 231.227 374.015 231.333 375.018 230.461Z" fill="#010101"/>
<path d="M359.956 210.272L379.621 243.52C381.204 246.195 380.094 249.643 377.257 250.883L356.27 260.067" fill="white"/>
<path d="M357.881 211.512L377.547 244.76C377.817 245.206 377.933 245.68 377.933 246.145C377.933 246.669 377.778 247.192 377.498 247.628C377.219 248.074 376.823 248.432 376.292 248.665L355.315 257.848C354.089 258.382 353.529 259.805 354.06 261.036C354.591 262.257 356.019 262.818 357.235 262.286L378.222 253.103C379.65 252.482 380.798 251.455 381.57 250.235C382.342 249.024 382.757 247.599 382.757 246.145C382.757 244.838 382.41 243.501 381.696 242.29L362.031 209.041C361.355 207.888 359.869 207.511 358.731 208.189C357.582 208.877 357.206 210.359 357.881 211.512Z" fill="#010101"/>
<path d="M355.353 247.241L345.656 251.27C344.421 251.783 343.832 253.198 344.343 254.438C344.855 255.669 346.263 256.259 347.499 255.746L357.196 251.716C358.431 251.203 359.01 249.789 358.499 248.548C357.997 247.318 356.579 246.727 355.353 247.241Z" fill="#010101"/>
<mask id="mask4_4_1173" style="mask-type:luminance" maskUnits="userSpaceOnUse" x="298" y="260" width="125" height="73">
<path d="M422.416 301.047C426.932 281.458 394.404 285.275 364.24 277.088C334.086 268.902 305.592 248.558 299.454 269.688C283.34 323.067 408.164 362.856 422.416 301.047Z" fill="white"/>
</mask>
<g mask="url(#mask4_4_1173)">
<path d="M275.148 304.448L401.486 357.459L440.759 284.713L303.101 236.4L275.148 304.448Z" fill="#010101"/>
<path d="M275.148 304.448L274.222 306.685L402.567 360.53L444.233 283.367L301.742 233.359L272.002 305.755L274.222 306.685L275.148 304.448L277.377 305.377L304.463 239.453L437.295 286.059L400.406 354.379L276.073 302.209L275.148 304.448Z" fill="#010101"/>
<path d="M319.902 270.462C323.395 289.237 399.595 306.114 406.234 293.869C412.873 281.623 397.009 258.527 359.888 249.179C322.758 239.839 312.877 232.689 319.902 270.462Z" fill="white"/>
<path d="M288.947 301.075C288.947 301.075 319.419 275.297 356.328 311.065C356.328 311.065 360.38 308.167 353.809 302.103C372.336 304.002 410.817 323.494 382.969 332.048C370.338 335.923 291.417 318.378 288.947 301.075Z" fill="#EB4D53"/>
</g>
<path d="M422.416 301.047L424.76 301.589C425.089 300.205 425.253 298.877 425.253 297.607C425.253 295.253 424.664 293.083 423.535 291.252C422.551 289.654 421.2 288.337 419.627 287.252C416.858 285.343 413.403 284.074 409.447 283.048C403.493 281.507 396.363 280.537 388.682 279.385C381.02 278.232 372.828 276.904 364.877 274.744C354.842 272.032 344.884 267.894 335.804 264.387C331.259 262.644 326.936 261.055 322.902 259.884C318.859 258.721 315.106 257.964 311.632 257.964C309.982 257.964 308.389 258.14 306.885 258.547C304.627 259.147 302.533 260.319 300.864 262.091C299.194 263.864 297.959 266.181 297.139 269.009L299.454 269.688L297.149 268.989C296.105 272.429 295.613 275.848 295.613 279.2C295.604 287.231 298.461 294.778 303.199 301.473C310.309 311.529 321.619 319.802 334.52 325.624C347.431 331.448 361.972 334.818 375.674 334.828C387.051 334.818 397.878 332.503 406.658 327.146C411.039 324.472 414.909 321.023 417.996 316.77C421.094 312.518 423.41 307.45 424.76 301.589L422.416 301.047L420.061 300.494C418.845 305.775 416.8 310.201 414.098 313.912C410.055 319.473 404.516 323.464 397.926 326.099C391.345 328.734 383.712 329.984 375.674 329.984C358.46 329.994 339.393 324.249 324.842 314.919C317.556 310.269 311.41 304.738 307.136 298.674C302.85 292.599 300.438 286.059 300.438 279.2C300.438 276.333 300.854 273.398 301.771 270.394L301.78 270.355L301.771 270.365C302.214 268.853 302.764 267.643 303.382 266.684C304.317 265.251 305.389 264.36 306.71 263.729C308.033 263.119 309.664 262.808 311.632 262.808C314.382 262.799 317.769 263.438 321.561 264.543C327.264 266.189 333.893 268.845 341.024 271.614C348.155 274.395 355.787 277.302 363.613 279.423C370.821 281.38 378.106 282.65 384.957 283.715C390.091 284.509 394.983 285.188 399.412 285.933C406.041 287.038 411.637 288.355 415.246 290.254C417.06 291.205 418.344 292.26 419.164 293.403C419.974 294.565 420.409 295.834 420.428 297.607C420.428 298.45 420.312 299.409 420.061 300.494L422.416 301.047Z" fill="#010101"/>
<path d="M420.727 272.943C420.804 272.963 425.349 274.183 429.711 277.971C431.901 279.87 434.053 282.389 435.674 285.752C437.295 289.112 438.395 293.336 438.395 298.722C438.395 299.836 438.347 300.999 438.25 302.221C438.134 303.558 439.128 304.719 440.45 304.835C441.782 304.942 442.949 303.953 443.056 302.616C443.171 301.27 443.22 299.972 443.22 298.722C443.22 292.571 441.927 287.514 439.929 283.456C436.938 277.351 432.442 273.543 428.736 271.296C425.021 269.039 422.059 268.293 421.895 268.244C420.602 267.925 419.299 268.71 418.971 270.009C418.653 271.307 419.434 272.624 420.727 272.953V272.943Z" fill="#010101"/>
<path d="M325.855 332.649C325.759 332.63 321.484 331.7 315.886 328.561C310.291 325.412 303.382 320.094 297.853 311.239C297.149 310.106 295.653 309.757 294.524 310.474C293.395 311.182 293.057 312.673 293.762 313.808C299.889 323.63 307.628 329.53 313.823 332.95C320.027 336.379 324.707 337.358 324.881 337.388C326.183 337.658 327.457 336.816 327.727 335.507C327.997 334.199 327.158 332.92 325.855 332.649Z" fill="#010101"/>
<path d="M40.6371 454.614C52.0184 466.065 76.3501 460.321 76.3501 460.321C95.0453 468.925 122.997 457.05 111.978 426.453C154.812 389.664 113.644 332.337 44.6079 347.762C-2.80001 358.353 -16.8124 448.482 40.6371 454.614Z" fill="white"/>
<path d="M40.6369 454.614L38.5006 456.747C41.8197 460.091 45.9714 462.078 50.2077 463.254C54.444 464.417 58.7891 464.793 62.7237 464.793C70.629 464.781 76.8928 463.302 77.0376 463.266L76.3499 460.321L75.0826 463.072C79.4758 465.096 84.2791 466.077 89.0344 466.077C96.1069 466.077 103.131 463.908 108.526 459.425C111.206 457.183 113.475 454.36 115.044 451.003C116.625 447.634 117.494 443.757 117.494 439.455C117.494 435.178 116.637 430.5 114.814 425.423L111.978 426.453L113.933 428.755C120.233 423.351 124.868 417.45 127.922 411.318C130.975 405.187 132.448 398.838 132.448 392.597C132.448 385.896 130.758 379.34 127.632 373.342C122.937 364.327 115.032 356.523 104.701 350.986C94.3692 345.448 81.5998 342.152 67.1168 342.152C59.8028 342.152 52.0544 342.988 43.956 344.806C37.0524 346.344 30.8366 349.447 25.4175 353.651C17.2949 359.94 10.9708 368.641 6.63799 378.335C2.3172 388.017 -9.15527e-05 398.704 -9.15527e-05 409.077C-9.15527e-05 420.734 2.9447 432.063 9.54657 440.97C12.8415 445.417 17.0536 449.234 22.1951 452.106C27.3366 454.965 33.3833 456.88 40.3231 457.619L40.6369 454.614L40.9628 451.597C34.7472 450.93 29.509 449.246 25.1278 446.798C18.5622 443.139 13.8552 437.747 10.6931 431.227C7.55508 424.72 6.02246 417.062 6.03453 409.077C6.02246 396.462 9.84823 383.061 16.7156 372.288C20.1433 366.896 24.3193 362.158 29.1107 358.438C33.9022 354.73 39.2973 352.052 45.2595 350.719C52.9476 348.998 60.2614 348.211 67.1168 348.211C85.2206 348.211 100.114 353.7 110.421 361.976C115.575 366.108 119.57 370.943 122.285 376.154C124.989 381.352 126.413 386.914 126.413 392.597C126.413 397.88 125.182 403.272 122.526 408.604C119.871 413.936 115.768 419.207 110.011 424.163L108.43 425.52L109.142 427.495C110.771 432.003 111.459 435.99 111.459 439.455C111.459 442.945 110.759 445.902 109.588 448.422C107.814 452.203 104.918 455.062 101.321 457.025C97.7244 458.988 93.4155 460.018 89.0344 460.018C85.1119 460.018 81.1411 459.194 77.6048 457.571L76.6634 457.134L75.6498 457.377C75.4205 457.425 69.6394 458.734 62.7237 458.734C59.1753 458.734 55.3252 458.383 51.801 457.413C48.2767 456.432 45.1388 454.856 42.7732 452.469L42.0248 451.718L40.9628 451.597L40.6369 454.614Z" fill="#010101"/>
<path d="M76.3501 460.321C76.3501 460.321 60.6962 451.136 58.4272 431.821Z" fill="white"/>
<path d="M67.6841 447.755C69.9531 450.942 72.6807 453.838 75.7704 456.226C76.9411 457.134 77.1707 458.867 76.35 460.321C75.5172 461.775 73.4896 462.127 72.0895 461.036C68.4929 458.249 65.379 454.941 62.748 451.245C62.5066 450.882 61.7099 449.597 60.853 447.78C59.9961 445.974 59.0668 443.624 58.5237 441.249C58.2341 440.061 57.9806 438.898 57.8961 437.783C57.7875 436.668 57.6425 435.662 57.7149 434.778C57.7873 433.009 58.0046 431.87 58.4271 431.821C58.8374 431.773 59.4048 432.803 60.0203 434.329C60.2979 435.105 60.7564 435.953 61.1426 436.898C61.5168 437.843 62.0357 438.801 62.5305 439.77C63.496 441.709 64.6789 443.563 65.6686 445.005C66.6704 446.423 67.4789 447.44 67.6841 447.755Z" fill="#010101"/>
<path d="M40.637 454.614C40.637 454.614 27.1074 439.661 30.1247 424.054Z" fill="white"/>
<path d="M35.4834 440.74C36.9679 444.205 38.9714 447.525 41.2646 450.579C42.1335 451.742 41.868 453.487 40.6369 454.614C39.4059 455.741 37.4628 455.584 36.461 454.239C33.8903 450.809 31.6694 447.15 29.9435 443.163C29.5814 442.436 27.9641 437.686 27.8555 432.912C27.9038 431.712 27.8798 430.549 28.0246 429.471C28.2178 428.392 28.3505 427.398 28.616 426.586C29.1833 424.951 29.7143 423.969 30.1247 424.054C30.535 424.139 30.7884 425.242 30.9574 426.781C31.0539 427.544 31.271 428.441 31.4038 429.386C31.5607 430.319 31.8746 431.312 32.0797 432.306C33.1901 436.28 35.1575 440.086 35.4834 440.74Z" fill="#010101"/>
<path d="M110.675 416.032C111.99 418.504 113.137 421.024 114.138 423.618C114.537 424.623 113.559 425.932 111.978 426.453C110.397 426.986 108.876 426.72 108.526 425.811C107.597 423.448 106.535 421.121 105.352 418.892C105.135 418.456 104.073 415.79 102.938 413.245C102.648 412.615 102.371 411.985 102.105 411.391C101.828 410.809 101.587 410.252 101.381 409.743C100.959 408.786 100.778 408.01 101.055 407.707C101.345 407.405 102.105 407.622 103.131 408.168C103.626 408.459 104.157 408.834 104.736 409.27C105.292 409.719 105.859 410.228 106.414 410.761C108.623 412.918 110.433 415.559 110.675 416.032Z" fill="#010101"/>
<path d="M88.7809 475.347C88.9498 474.45 93.3551 474.814 98.4121 474.183C100.947 473.929 103.626 473.396 105.98 472.584C108.333 471.808 110.373 470.766 111.857 469.882C113.39 468.985 115.285 467.688 117.095 465.98C118.918 464.308 120.607 462.187 122.007 460.091C124.832 455.886 126.268 451.827 127.077 451.96C127.909 452.069 127.946 456.734 125.797 462.066C124.723 464.708 123.13 467.507 121.139 469.809C119.171 472.148 116.866 473.977 114.923 475.104C112.992 476.256 110.288 477.395 107.331 478.001C104.362 478.643 101.188 478.764 98.3879 478.473C92.7275 477.964 88.6119 476.074 88.7809 475.347Z" fill="#010101"/>
<path d="M113.885 402.315C113.994 402.715 113.487 403.309 112.642 403.987C112.22 404.327 111.701 404.69 111.133 405.054C110.614 405.454 110.035 405.902 109.42 406.362C109.13 406.581 108.816 406.811 108.502 407.029C108.237 407.283 107.947 407.55 107.67 407.804C107.114 408.313 106.523 408.774 106.088 409.331C105.099 410.337 104.423 411.391 103.856 412.155C103.626 412.579 103.3 413.039 102.975 413.548C102.745 414.105 102.359 414.651 102.118 415.293C101.562 416.541 101.176 418.019 100.862 419.437C100.609 420.867 100.464 422.236 100.319 423.291C100.175 424.333 99.9934 425.035 99.6072 425.181C98.8227 425.484 97.1571 423.048 96.6019 419.437C96.3606 417.644 96.3608 415.584 96.8073 413.657C96.9884 412.688 97.3745 411.803 97.6642 410.955C98.0383 410.131 98.4728 409.416 98.8349 408.786C99.6676 407.611 100.911 406.181 102.492 405.078C103.228 404.448 104.109 404.024 104.954 403.587C105.389 403.369 105.811 403.163 106.221 402.957C106.656 402.812 107.09 402.679 107.513 402.533C108.357 402.291 109.154 402.037 109.89 401.903C110.638 401.806 111.315 401.758 111.894 401.758C113.04 401.746 113.764 401.915 113.885 402.315Z" fill="#010101"/>
<path d="M27.723 353.191C28.6161 364.751 42.8455 373.075 59.5011 371.767C76.1687 370.47 88.9381 360.049 88.045 348.489C87.1519 336.929 72.9222 328.604 56.2666 329.913C39.6111 331.209 26.8299 341.631 27.723 353.191Z" fill="white"/>
<path d="M27.7231 353.191L24.7179 353.421C24.9713 356.669 26.1057 359.71 27.8799 362.352C30.5472 366.314 34.6025 369.44 39.4664 371.597C44.3303 373.742 50.015 374.93 56.0979 374.93C57.2927 374.93 58.5118 374.893 59.7428 374.796C68.3361 374.118 76.0121 371.198 81.6846 366.787C84.5209 364.581 86.8622 362 88.5157 359.104C90.1571 356.208 91.1107 352.985 91.1107 349.628C91.1107 349.18 91.0866 348.72 91.0624 348.259C90.809 345.012 89.6743 341.982 87.9001 339.328C85.2328 335.366 81.1657 332.24 76.3138 330.083C71.4499 327.938 65.7532 326.751 59.6824 326.751C58.4755 326.751 57.2685 326.787 56.0375 326.884C47.4442 327.562 39.7682 330.483 34.0836 334.894C31.2594 337.099 28.9178 339.68 27.2643 342.576C25.6108 345.472 24.6696 348.695 24.6696 352.052C24.6696 352.5 24.6817 352.961 24.7179 353.433V353.421L27.7231 353.191L30.7404 352.948C30.7163 352.645 30.7042 352.355 30.7042 352.052C30.7042 349.846 31.3076 347.69 32.5025 345.581C34.2887 342.443 37.4388 339.462 41.5906 337.196C45.7425 334.93 50.8717 333.367 56.508 332.93C57.5701 332.846 58.6324 332.797 59.6824 332.797C66.7308 332.797 73.0791 334.675 77.5809 337.632C79.8378 339.11 81.6363 340.843 82.8915 342.721C84.1467 344.587 84.8709 346.587 85.0399 348.719C85.064 349.022 85.0761 349.337 85.0761 349.628C85.0761 351.834 84.4606 353.991 83.2657 356.099C81.4916 359.237 78.3415 362.218 74.1897 364.484C70.0378 366.75 64.9083 368.313 59.272 368.75C58.1978 368.834 57.1358 368.871 56.0979 368.871C49.0495 368.883 42.7009 367.005 38.187 364.048C35.9301 362.57 34.1319 360.837 32.8888 358.959C31.6336 357.093 30.9094 355.093 30.7404 352.961V352.948L27.7231 353.191Z" fill="#010101"/>
<path d="M38.2352 399.431C37.1248 399.431 36.2315 400.328 36.2315 401.442C36.2315 402.545 37.1248 403.454 38.2352 403.454C39.3335 403.454 40.2385 402.545 40.2385 401.442C40.2385 400.328 39.3335 399.431 38.2352 399.431Z" fill="#010101"/>
<path d="M38.2353 402.461V396.402C36.8595 396.39 35.5802 396.971 34.6871 397.868C33.7819 398.777 33.2144 400.061 33.2144 401.443C33.2144 402.824 33.7819 404.097 34.6871 405.005C35.5802 405.914 36.8595 406.484 38.2353 406.484C39.6112 406.484 40.8784 405.914 41.7836 405.005C42.6888 404.097 43.256 402.824 43.256 401.443C43.256 400.061 42.6888 398.777 41.7836 397.868C40.8784 396.971 39.6112 396.39 38.2353 396.402V402.461V401.443L37.5111 402.158C37.6921 402.339 37.9578 402.461 38.2353 402.461V401.443H37.2214C37.2214 401.709 37.3421 401.988 37.5111 402.158L38.2353 401.443L37.5111 400.716C37.3421 400.897 37.2214 401.164 37.2214 401.443H38.2353V400.425C37.9578 400.425 37.6921 400.534 37.5111 400.716L38.2353 401.443L38.9472 400.716C38.7783 400.534 38.5009 400.425 38.2353 400.425V401.443H39.249C39.249 401.164 39.1283 400.897 38.9472 400.716L38.2353 401.443L38.9472 402.158C39.1283 401.988 39.249 401.709 39.249 401.443H38.2353V402.461C38.5009 402.461 38.7783 402.339 38.9472 402.158L38.2353 401.443V402.461Z" fill="#010101"/>
<path d="M66.2357 401.176C65.1253 401.176 64.2323 402.073 64.2323 403.188C64.2323 404.303 65.1253 405.199 66.2357 405.199C67.334 405.199 68.239 404.303 68.239 403.188C68.239 402.073 67.334 401.176 66.2357 401.176Z" fill="#010101"/>
<path d="M66.2357 404.205V398.147C64.8598 398.147 63.5805 398.716 62.6753 399.625C61.7822 400.522 61.2029 401.806 61.215 403.188C61.2029 404.569 61.7822 405.853 62.6753 406.75C63.5805 407.659 64.8598 408.228 66.2357 408.228C67.6116 408.228 68.8788 407.659 69.784 406.75C70.6892 405.853 71.2564 404.569 71.2564 403.188C71.2564 401.806 70.6892 400.522 69.784 399.625C68.8788 398.716 67.6116 398.147 66.2357 398.147V404.205V403.188L65.5114 403.902C65.6925 404.084 65.9581 404.205 66.2357 404.205V403.188H65.2218C65.2218 403.454 65.3304 403.733 65.5114 403.902L66.2357 403.188L65.5114 402.46C65.3304 402.642 65.2218 402.921 65.2218 403.188H66.2357V402.17C65.9581 402.17 65.6925 402.291 65.5114 402.46L66.2357 403.188L66.9479 402.46C66.7789 402.291 66.5012 402.17 66.2357 402.17V403.188H67.2496C67.2496 402.909 67.1289 402.642 66.9479 402.46L66.2357 403.188L66.9479 403.902C67.1289 403.733 67.2496 403.454 67.2496 403.188H66.2357V404.205C66.5012 404.205 66.7789 404.084 66.9479 403.902L66.2357 403.188V404.205Z" fill="#010101"/>
<path d="M69.3257 334.59C66.9963 330.519 66.0066 326.581 65.9946 322.473C65.9946 318.183 67.1412 313.651 69.6516 309.01C73.4051 302.091 80.357 295.063 90.5193 289.78C100.67 284.497 113.97 280.971 130.07 280.971C148.705 280.971 171.142 285.709 196.535 297.972C204.042 301.595 213.058 298.42 216.667 290.883C220.287 283.346 217.126 274.294 209.618 270.671C180.701 256.699 153.81 250.677 130.07 250.677C102.757 250.677 79.6448 258.662 62.9531 271.616C54.6253 278.099 47.8905 285.842 43.1715 294.482C38.4765 303.109 35.8215 312.682 35.8215 322.473C35.8094 331.803 38.2835 341.267 43.2198 349.774C47.3957 357.008 56.6167 359.48 63.8341 355.287C71.0395 351.095 73.5016 341.825 69.3257 334.59Z" fill="#010101"/>
</g>
<defs>
<clipPath id="clip0_4_1173">
<rect width="671" height="705" fill="white"/>
</clipPath>
</defs>
</svg>
